<svg width="791" height="586" viewBox="0 0 791 586" fill="none" xmlns="http://www.w3.org/2000/svg">
<path d="M38.4199 149V127.59H30.7734V123.23H51.252V127.59H43.623V149H38.4199ZM59.5137 123.23V132.705C61.1074 130.842 63.0117 129.91 65.2266 129.91C66.3633 129.91 67.3887 130.121 68.3027 130.543C69.2168 130.965 69.9023 131.504 70.3594 132.16C70.8281 132.816 71.1445 133.543 71.3086 134.34C71.4844 135.137 71.5723 136.373 71.5723 138.049V149H66.6328V139.139C66.6328 137.182 66.5391 135.939 66.3516 135.412C66.1641 134.885 65.8301 134.469 65.3496 134.164C64.8809 133.848 64.2891 133.689 63.5742 133.689C62.7539 133.689 62.0215 133.889 61.377 134.287C60.7324 134.686 60.2578 135.289 59.9531 136.098C59.6602 136.895 59.5137 138.078 59.5137 139.648V149H54.5742V123.23H59.5137ZM87.4102 143.059L92.332 143.885C91.6992 145.689 90.6973 147.066 89.3262 148.016C87.9668 148.953 86.2617 149.422 84.2109 149.422C80.9648 149.422 78.5625 148.361 77.0039 146.24C75.7734 144.541 75.1582 142.396 75.1582 139.807C75.1582 136.713 75.9668 134.293 77.584 132.547C79.2012 130.789 81.2461 129.91 83.7188 129.91C86.4961 129.91 88.6875 130.83 90.293 132.67C91.8984 134.498 92.666 137.305 92.5957 141.09H80.2207C80.2559 142.555 80.6543 143.697 81.416 144.518C82.1777 145.326 83.127 145.73 84.2637 145.73C85.0371 145.73 85.6875 145.52 86.2148 145.098C86.7422 144.676 87.1406 143.996 87.4102 143.059ZM87.6914 138.066C87.6562 136.637 87.2871 135.553 86.584 134.814C85.8809 134.064 85.0254 133.689 84.0176 133.689C82.9395 133.689 82.0488 134.082 81.3457 134.867C80.6426 135.652 80.2969 136.719 80.3086 138.066H87.6914ZM106.693 149V123.23H125.801V127.59H111.896V133.303H124.834V137.645H111.896V144.658H126.293V149H106.693ZM147.65 149H142.711V139.473C142.711 137.457 142.605 136.156 142.395 135.57C142.184 134.973 141.838 134.51 141.357 134.182C140.889 133.854 140.32 133.689 139.652 133.689C138.797 133.689 138.029 133.924 137.35 134.393C136.67 134.861 136.201 135.482 135.943 136.256C135.697 137.029 135.574 138.459 135.574 140.545V149H130.635V130.332H135.223V133.074C136.852 130.965 138.902 129.91 141.375 129.91C142.465 129.91 143.461 130.109 144.363 130.508C145.266 130.895 145.945 131.393 146.402 132.002C146.871 132.611 147.193 133.303 147.369 134.076C147.557 134.85 147.65 135.957 147.65 137.398V149ZM169.799 149H165.211V146.258C164.449 147.324 163.547 148.121 162.504 148.648C161.473 149.164 160.43 149.422 159.375 149.422C157.23 149.422 155.391 148.561 153.855 146.838C152.332 145.104 151.57 142.689 151.57 139.596C151.57 136.432 152.314 134.029 153.803 132.389C155.291 130.736 157.172 129.91 159.445 129.91C161.531 129.91 163.336 130.777 164.859 132.512V123.23H169.799V149ZM156.615 139.262C156.615 141.254 156.891 142.695 157.441 143.586C158.238 144.875 159.352 145.52 160.781 145.52C161.918 145.52 162.885 145.039 163.682 144.078C164.479 143.105 164.877 141.658 164.877 139.736C164.877 137.592 164.49 136.051 163.717 135.113C162.943 134.164 161.953 133.689 160.746 133.689C159.574 133.689 158.59 134.158 157.793 135.096C157.008 136.021 156.615 137.41 156.615 139.262ZM174.545 130.332H179.15V133.074C179.748 132.137 180.557 131.375 181.576 130.789C182.596 130.203 183.727 129.91 184.969 129.91C187.137 129.91 188.977 130.76 190.488 132.459C192 134.158 192.756 136.525 192.756 139.561C192.756 142.678 191.994 145.104 190.471 146.838C188.947 148.561 187.102 149.422 184.934 149.422C183.902 149.422 182.965 149.217 182.121 148.807C181.289 148.396 180.41 147.693 179.484 146.697V156.102H174.545V130.332ZM179.432 139.35C179.432 141.447 179.848 143 180.68 144.008C181.512 145.004 182.525 145.502 183.721 145.502C184.869 145.502 185.824 145.045 186.586 144.131C187.348 143.205 187.729 141.693 187.729 139.596C187.729 137.639 187.336 136.186 186.551 135.236C185.766 134.287 184.793 133.812 183.633 133.812C182.426 133.812 181.424 134.281 180.627 135.219C179.83 136.145 179.432 137.521 179.432 139.35ZM195.551 139.402C195.551 137.762 195.955 136.174 196.764 134.639C197.572 133.104 198.715 131.932 200.191 131.123C201.68 130.314 203.338 129.91 205.166 129.91C207.99 129.91 210.305 130.83 212.109 132.67C213.914 134.498 214.816 136.812 214.816 139.613C214.816 142.438 213.902 144.781 212.074 146.645C210.258 148.496 207.967 149.422 205.201 149.422C203.49 149.422 201.855 149.035 200.297 148.262C198.75 147.488 197.572 146.357 196.764 144.869C195.955 143.369 195.551 141.547 195.551 139.402ZM200.613 139.666C200.613 141.518 201.053 142.936 201.932 143.92C202.811 144.904 203.895 145.396 205.184 145.396C206.473 145.396 207.551 144.904 208.418 143.92C209.297 142.936 209.736 141.506 209.736 139.631C209.736 137.803 209.297 136.396 208.418 135.412C207.551 134.428 206.473 133.936 205.184 133.936C203.895 133.936 202.811 134.428 201.932 135.412C201.053 136.396 200.613 137.814 200.613 139.666ZM218.701 127.801V123.23H223.641V127.801H218.701ZM218.701 149V130.332H223.641V149H218.701ZM245.701 149H240.762V139.473C240.762 137.457 240.656 136.156 240.445 135.57C240.234 134.973 239.889 134.51 239.408 134.182C238.939 133.854 238.371 133.689 237.703 133.689C236.848 133.689 236.08 133.924 235.4 134.393C234.721 134.861 234.252 135.482 233.994 136.256C233.748 137.029 233.625 138.459 233.625 140.545V149H228.686V130.332H233.273V133.074C234.902 130.965 236.953 129.91 239.426 129.91C240.516 129.91 241.512 130.109 242.414 130.508C243.316 130.895 243.996 131.393 244.453 132.002C244.922 132.611 245.244 133.303 245.42 134.076C245.607 134.85 245.701 135.957 245.701 137.398V149ZM259.289 130.332V134.27H255.914V141.793C255.914 143.316 255.943 144.207 256.002 144.465C256.072 144.711 256.219 144.916 256.441 145.08C256.676 145.244 256.957 145.326 257.285 145.326C257.742 145.326 258.404 145.168 259.271 144.852L259.693 148.684C258.545 149.176 257.244 149.422 255.791 149.422C254.9 149.422 254.098 149.275 253.383 148.982C252.668 148.678 252.141 148.291 251.801 147.822C251.473 147.342 251.244 146.697 251.115 145.889C251.01 145.314 250.957 144.154 250.957 142.408V134.27H248.689V130.332H250.957V126.623L255.914 123.74V130.332H259.289ZM32.6367 164.23H42.9375C44.9766 164.23 46.4941 164.318 47.4902 164.494C48.498 164.658 49.3945 165.01 50.1797 165.549C50.9766 166.088 51.6387 166.809 52.166 167.711C52.6934 168.602 52.957 169.604 52.957 170.717C52.957 171.924 52.6289 173.031 51.9727 174.039C51.3281 175.047 50.4492 175.803 49.3359 176.307C50.9062 176.764 52.1133 177.543 52.957 178.645C53.8008 179.746 54.2227 181.041 54.2227 182.529C54.2227 183.701 53.9473 184.844 53.3965 185.957C52.8574 187.059 52.1133 187.943 51.1641 188.611C50.2266 189.268 49.0664 189.672 47.6836 189.824C46.8164 189.918 44.7246 189.977 41.4082 190H32.6367V164.23ZM37.8398 168.52V174.479H41.25C43.2773 174.479 44.5371 174.449 45.0293 174.391C45.9199 174.285 46.6172 173.98 47.1211 173.477C47.6367 172.961 47.8945 172.287 47.8945 171.455C47.8945 170.658 47.6719 170.014 47.2266 169.521C46.793 169.018 46.1426 168.713 45.2754 168.607C44.7598 168.549 43.2773 168.52 40.8281 168.52H37.8398ZM37.8398 178.768V185.658H42.6562C44.5312 185.658 45.7207 185.605 46.2246 185.5C46.998 185.359 47.625 185.02 48.1055 184.48C48.5977 183.93 48.8438 183.197 48.8438 182.283C48.8438 181.51 48.6562 180.854 48.2812 180.314C47.9062 179.775 47.3613 179.383 46.6465 179.137C45.9434 178.891 44.4082 178.768 42.041 178.768H37.8398ZM63.3281 190H58.3887V171.332H62.9766V173.986C63.7617 172.732 64.4648 171.906 65.0859 171.508C65.7188 171.109 66.4336 170.91 67.2305 170.91C68.3555 170.91 69.4395 171.221 70.4824 171.842L68.9531 176.148C68.1211 175.609 67.3477 175.34 66.6328 175.34C65.9414 175.34 65.3555 175.533 64.875 175.92C64.3945 176.295 64.0137 176.98 63.7324 177.977C63.4629 178.973 63.3281 181.059 63.3281 184.234V190ZM71.4844 180.402C71.4844 178.762 71.8887 177.174 72.6973 175.639C73.5059 174.104 74.6484 172.932 76.125 172.123C77.6133 171.314 79.2715 170.91 81.0996 170.91C83.9238 170.91 86.2383 171.83 88.043 173.67C89.8477 175.498 90.75 177.812 90.75 180.613C90.75 183.438 89.8359 185.781 88.0078 187.645C86.1914 189.496 83.9004 190.422 81.1348 190.422C79.4238 190.422 77.7891 190.035 76.2305 189.262C74.6836 188.488 73.5059 187.357 72.6973 185.869C71.8887 184.369 71.4844 182.547 71.4844 180.402ZM76.5469 180.666C76.5469 182.518 76.9863 183.936 77.8652 184.92C78.7441 185.904 79.8281 186.396 81.1172 186.396C82.4062 186.396 83.4844 185.904 84.3516 184.92C85.2305 183.936 85.6699 182.506 85.6699 180.631C85.6699 178.803 85.2305 177.396 84.3516 176.412C83.4844 175.428 82.4062 174.936 81.1172 174.936C79.8281 174.936 78.7441 175.428 77.8652 176.412C76.9863 177.396 76.5469 178.814 76.5469 180.666ZM98.1152 190L92.209 171.332H97.0078L100.506 183.566L103.723 171.332H108.486L111.598 183.566L115.166 171.332H120.035L114.041 190H109.295L106.078 177.994L102.914 190H98.1152ZM120.914 184.674L125.871 183.918C126.082 184.879 126.51 185.611 127.154 186.115C127.799 186.607 128.701 186.854 129.861 186.854C131.139 186.854 132.1 186.619 132.744 186.15C133.178 185.822 133.395 185.383 133.395 184.832C133.395 184.457 133.277 184.146 133.043 183.9C132.797 183.666 132.246 183.449 131.391 183.25C127.406 182.371 124.881 181.568 123.814 180.842C122.338 179.834 121.6 178.434 121.6 176.641C121.6 175.023 122.238 173.664 123.516 172.562C124.793 171.461 126.773 170.91 129.457 170.91C132.012 170.91 133.91 171.326 135.152 172.158C136.395 172.99 137.25 174.221 137.719 175.85L133.061 176.711C132.861 175.984 132.48 175.428 131.918 175.041C131.367 174.654 130.576 174.461 129.545 174.461C128.244 174.461 127.312 174.643 126.75 175.006C126.375 175.264 126.188 175.598 126.188 176.008C126.188 176.359 126.352 176.658 126.68 176.904C127.125 177.232 128.66 177.695 131.285 178.293C133.922 178.891 135.762 179.623 136.805 180.49C137.836 181.369 138.352 182.594 138.352 184.164C138.352 185.875 137.637 187.346 136.207 188.576C134.777 189.807 132.662 190.422 129.861 190.422C127.318 190.422 125.303 189.906 123.814 188.875C122.338 187.844 121.371 186.443 120.914 184.674ZM153.504 184.059L158.426 184.885C157.793 186.689 156.791 188.066 155.42 189.016C154.061 189.953 152.355 190.422 150.305 190.422C147.059 190.422 144.656 189.361 143.098 187.24C141.867 185.541 141.252 183.396 141.252 180.807C141.252 177.713 142.061 175.293 143.678 173.547C145.295 171.789 147.34 170.91 149.812 170.91C152.59 170.91 154.781 171.83 156.387 173.67C157.992 175.498 158.76 178.305 158.689 182.09H146.314C146.35 183.555 146.748 184.697 147.51 185.518C148.271 186.326 149.221 186.73 150.357 186.73C151.131 186.73 151.781 186.52 152.309 186.098C152.836 185.676 153.234 184.996 153.504 184.059ZM153.785 179.066C153.75 177.637 153.381 176.553 152.678 175.814C151.975 175.064 151.119 174.689 150.111 174.689C149.033 174.689 148.143 175.082 147.439 175.867C146.736 176.652 146.391 177.719 146.402 179.066H153.785ZM167.461 190H162.521V171.332H167.109V173.986C167.895 172.732 168.598 171.906 169.219 171.508C169.852 171.109 170.566 170.91 171.363 170.91C172.488 170.91 173.572 171.221 174.615 171.842L173.086 176.148C172.254 175.609 171.48 175.34 170.766 175.34C170.074 175.34 169.488 175.533 169.008 175.92C168.527 176.295 168.146 176.98 167.865 177.977C167.596 178.973 167.461 181.059 167.461 184.234V190Z" fill="#B1B9EE"/>
<path d="M34.4922 65V30.6406H45.625C49.8438 30.6406 52.5938 30.8125 53.875 31.1562C55.8438 31.6719 57.4922 32.7969 58.8203 34.5312C60.1484 36.25 60.8125 38.4766 60.8125 41.2109C60.8125 43.3203 60.4297 45.0938 59.6641 46.5312C58.8984 47.9688 57.9219 49.1016 56.7344 49.9297C55.5625 50.7422 54.3672 51.2812 53.1484 51.5469C51.4922 51.875 49.0938 52.0391 45.9531 52.0391H41.4297V65H34.4922ZM41.4297 36.4531V46.2031H45.2266C47.9609 46.2031 49.7891 46.0234 50.7109 45.6641C51.6328 45.3047 52.3516 44.7422 52.8672 43.9766C53.3984 43.2109 53.6641 42.3203 53.6641 41.3047C53.6641 40.0547 53.2969 39.0234 52.5625 38.2109C51.8281 37.3984 50.8984 36.8906 49.7734 36.6875C48.9453 36.5312 47.2812 36.4531 44.7812 36.4531H41.4297ZM72.7656 65H66.1797V40.1094H72.2969V43.6484C73.3438 41.9766 74.2812 40.875 75.1094 40.3438C75.9531 39.8125 76.9062 39.5469 77.9688 39.5469C79.4688 39.5469 80.9141 39.9609 82.3047 40.7891L80.2656 46.5312C79.1562 45.8125 78.125 45.4531 77.1719 45.4531C76.25 45.4531 75.4688 45.7109 74.8281 46.2266C74.1875 46.7266 73.6797 47.6406 73.3047 48.9688C72.9453 50.2969 72.7656 53.0781 72.7656 57.3125V65ZM83.6406 52.2031C83.6406 50.0156 84.1797 47.8984 85.2578 45.8516C86.3359 43.8047 87.8594 42.2422 89.8281 41.1641C91.8125 40.0859 94.0234 39.5469 96.4609 39.5469C100.227 39.5469 103.312 40.7734 105.719 43.2266C108.125 45.6641 109.328 48.75 109.328 52.4844C109.328 56.25 108.109 59.375 105.672 61.8594C103.25 64.3281 100.195 65.5625 96.5078 65.5625C94.2266 65.5625 92.0469 65.0469 89.9688 64.0156C87.9062 62.9844 86.3359 61.4766 85.2578 59.4922C84.1797 57.4922 83.6406 55.0625 83.6406 52.2031ZM90.3906 52.5547C90.3906 55.0234 90.9766 56.9141 92.1484 58.2266C93.3203 59.5391 94.7656 60.1953 96.4844 60.1953C98.2031 60.1953 99.6406 59.5391 100.797 58.2266C101.969 56.9141 102.555 55.0078 102.555 52.5078C102.555 50.0703 101.969 48.1953 100.797 46.8828C99.6406 45.5703 98.2031 44.9141 96.4844 44.9141C94.7656 44.9141 93.3203 45.5703 92.1484 46.8828C90.9766 48.1953 90.3906 50.0859 90.3906 52.5547ZM114.367 36.7344V30.6406H120.953V36.7344H114.367ZM120.953 40.1094V64.2266C120.953 67.3984 120.742 69.6328 120.32 70.9297C119.914 72.2422 119.117 73.2656 117.93 74C116.758 74.7344 115.258 75.1016 113.43 75.1016C112.773 75.1016 112.062 75.0391 111.297 74.9141C110.547 74.8047 109.734 74.6328 108.859 74.3984L110.008 68.7734C110.32 68.8359 110.617 68.8828 110.898 68.9141C111.164 68.9609 111.414 68.9844 111.648 68.9844C112.32 68.9844 112.867 68.8359 113.289 68.5391C113.727 68.2578 114.016 67.9141 114.156 67.5078C114.297 67.1016 114.367 65.8828 114.367 63.8516V40.1094H120.953ZM142.281 57.0781L148.844 58.1797C148 60.5859 146.664 62.4219 144.836 63.6875C143.023 64.9375 140.75 65.5625 138.016 65.5625C133.688 65.5625 130.484 64.1484 128.406 61.3203C126.766 59.0547 125.945 56.1953 125.945 52.7422C125.945 48.6172 127.023 45.3906 129.18 43.0625C131.336 40.7188 134.062 39.5469 137.359 39.5469C141.062 39.5469 143.984 40.7734 146.125 43.2266C148.266 45.6641 149.289 49.4062 149.195 54.4531H132.695C132.742 56.4062 133.273 57.9297 134.289 59.0234C135.305 60.1016 136.57 60.6406 138.086 60.6406C139.117 60.6406 139.984 60.3594 140.688 59.7969C141.391 59.2344 141.922 58.3281 142.281 57.0781ZM142.656 50.4219C142.609 48.5156 142.117 47.0703 141.18 46.0859C140.242 45.0859 139.102 44.5859 137.758 44.5859C136.32 44.5859 135.133 45.1094 134.195 46.1562C133.258 47.2031 132.797 48.625 132.812 50.4219H142.656ZM176.289 47.4688L169.797 48.6406C169.578 47.3438 169.078 46.3672 168.297 45.7109C167.531 45.0547 166.531 44.7266 165.297 44.7266C163.656 44.7266 162.344 45.2969 161.359 46.4375C160.391 47.5625 159.906 49.4531 159.906 52.1094C159.906 55.0625 160.398 57.1484 161.383 58.3672C162.383 59.5859 163.719 60.1953 165.391 60.1953C166.641 60.1953 167.664 59.8438 168.461 59.1406C169.258 58.4219 169.82 57.1953 170.148 55.4609L176.617 56.5625C175.945 59.5312 174.656 61.7734 172.75 63.2891C170.844 64.8047 168.289 65.5625 165.086 65.5625C161.445 65.5625 158.539 64.4141 156.367 62.1172C154.211 59.8203 153.133 56.6406 153.133 52.5781C153.133 48.4688 154.219 45.2734 156.391 42.9922C158.562 40.6953 161.5 39.5469 165.203 39.5469C168.234 39.5469 170.641 40.2031 172.422 41.5156C174.219 42.8125 175.508 44.7969 176.289 47.4688ZM192.719 40.1094V45.3594H188.219V55.3906C188.219 57.4219 188.258 58.6094 188.336 58.9531C188.43 59.2812 188.625 59.5547 188.922 59.7734C189.234 59.9922 189.609 60.1016 190.047 60.1016C190.656 60.1016 191.539 59.8906 192.695 59.4688L193.258 64.5781C191.727 65.2344 189.992 65.5625 188.055 65.5625C186.867 65.5625 185.797 65.3672 184.844 64.9766C183.891 64.5703 183.188 64.0547 182.734 63.4297C182.297 62.7891 181.992 61.9297 181.82 60.8516C181.68 60.0859 181.609 58.5391 181.609 56.2109V45.3594H178.586V40.1094H181.609V35.1641L188.219 31.3203V40.1094H192.719ZM194.969 57.8984L201.578 56.8906C201.859 58.1719 202.43 59.1484 203.289 59.8203C204.148 60.4766 205.352 60.8047 206.898 60.8047C208.602 60.8047 209.883 60.4922 210.742 59.8672C211.32 59.4297 211.609 58.8438 211.609 58.1094C211.609 57.6094 211.453 57.1953 211.141 56.8672C210.812 56.5547 210.078 56.2656 208.938 56C203.625 54.8281 200.258 53.7578 198.836 52.7891C196.867 51.4453 195.883 49.5781 195.883 47.1875C195.883 45.0312 196.734 43.2188 198.438 41.75C200.141 40.2812 202.781 39.5469 206.359 39.5469C209.766 39.5469 212.297 40.1016 213.953 41.2109C215.609 42.3203 216.75 43.9609 217.375 46.1328L211.164 47.2812C210.898 46.3125 210.391 45.5703 209.641 45.0547C208.906 44.5391 207.852 44.2812 206.477 44.2812C204.742 44.2812 203.5 44.5234 202.75 45.0078C202.25 45.3516 202 45.7969 202 46.3438C202 46.8125 202.219 47.2109 202.656 47.5391C203.25 47.9766 205.297 48.5938 208.797 49.3906C212.312 50.1875 214.766 51.1641 216.156 52.3203C217.531 53.4922 218.219 55.125 218.219 57.2188C218.219 59.5 217.266 61.4609 215.359 63.1016C213.453 64.7422 210.633 65.5625 206.898 65.5625C203.508 65.5625 200.82 64.875 198.836 63.5C196.867 62.125 195.578 60.2578 194.969 57.8984Z" fill="#B1B9EE"/>
<path d="M32.7598 310V284.441H37.9629V305.658H50.9004V310H32.7598ZM54.5918 288.801V284.23H59.5312V288.801H54.5918ZM54.5918 310V291.332H59.5312V310H54.5918ZM81.5918 310H76.6523V300.473C76.6523 298.457 76.5469 297.156 76.3359 296.57C76.125 295.973 75.7793 295.51 75.2988 295.182C74.8301 294.854 74.2617 294.689 73.5938 294.689C72.7383 294.689 71.9707 294.924 71.291 295.393C70.6113 295.861 70.1426 296.482 69.8848 297.256C69.6387 298.029 69.5156 299.459 69.5156 301.545V310H64.5762V291.332H69.1641V294.074C70.793 291.965 72.8438 290.91 75.3164 290.91C76.4062 290.91 77.4023 291.109 78.3047 291.508C79.207 291.895 79.8867 292.393 80.3438 293.002C80.8125 293.611 81.1348 294.303 81.3105 295.076C81.498 295.85 81.5918 296.957 81.5918 298.398V310ZM97.4297 304.059L102.352 304.885C101.719 306.689 100.717 308.066 99.3457 309.016C97.9863 309.953 96.2812 310.422 94.2305 310.422C90.9844 310.422 88.582 309.361 87.0234 307.24C85.793 305.541 85.1777 303.396 85.1777 300.807C85.1777 297.713 85.9863 295.293 87.6035 293.547C89.2207 291.789 91.2656 290.91 93.7383 290.91C96.5156 290.91 98.707 291.83 100.312 293.67C101.918 295.498 102.686 298.305 102.615 302.09H90.2402C90.2754 303.555 90.6738 304.697 91.4355 305.518C92.1973 306.326 93.1465 306.73 94.2832 306.73C95.0566 306.73 95.707 306.52 96.2344 306.098C96.7617 305.676 97.1602 304.996 97.4297 304.059ZM97.7109 299.066C97.6758 297.637 97.3066 296.553 96.6035 295.814C95.9004 295.064 95.0449 294.689 94.0371 294.689C92.959 294.689 92.0684 295.082 91.3652 295.867C90.6621 296.652 90.3164 297.719 90.3281 299.066H97.7109ZM104.918 304.674L109.875 303.918C110.086 304.879 110.514 305.611 111.158 306.115C111.803 306.607 112.705 306.854 113.865 306.854C115.143 306.854 116.104 306.619 116.748 306.15C117.182 305.822 117.398 305.383 117.398 304.832C117.398 304.457 117.281 304.146 117.047 303.9C116.801 303.666 116.25 303.449 115.395 303.25C111.41 302.371 108.885 301.568 107.818 300.842C106.342 299.834 105.604 298.434 105.604 296.641C105.604 295.023 106.242 293.664 107.52 292.562C108.797 291.461 110.777 290.91 113.461 290.91C116.016 290.91 117.914 291.326 119.156 292.158C120.398 292.99 121.254 294.221 121.723 295.85L117.064 296.711C116.865 295.984 116.484 295.428 115.922 295.041C115.371 294.654 114.58 294.461 113.549 294.461C112.248 294.461 111.316 294.643 110.754 295.006C110.379 295.264 110.191 295.598 110.191 296.008C110.191 296.359 110.355 296.658 110.684 296.904C111.129 297.232 112.664 297.695 115.289 298.293C117.926 298.891 119.766 299.623 120.809 300.49C121.84 301.369 122.355 302.594 122.355 304.164C122.355 305.875 121.641 307.346 120.211 308.576C118.781 309.807 116.666 310.422 113.865 310.422C111.322 310.422 109.307 309.906 107.818 308.875C106.342 307.844 105.375 306.443 104.918 304.674ZM135.574 300.402C135.574 298.762 135.979 297.174 136.787 295.639C137.596 294.104 138.738 292.932 140.215 292.123C141.703 291.314 143.361 290.91 145.189 290.91C148.014 290.91 150.328 291.83 152.133 293.67C153.938 295.498 154.84 297.812 154.84 300.613C154.84 303.438 153.926 305.781 152.098 307.645C150.281 309.496 147.99 310.422 145.225 310.422C143.514 310.422 141.879 310.035 140.32 309.262C138.773 308.488 137.596 307.357 136.787 305.869C135.979 304.369 135.574 302.547 135.574 300.402ZM140.637 300.666C140.637 302.518 141.076 303.936 141.955 304.92C142.834 305.904 143.918 306.396 145.207 306.396C146.496 306.396 147.574 305.904 148.441 304.92C149.32 303.936 149.76 302.506 149.76 300.631C149.76 298.803 149.32 297.396 148.441 296.412C147.574 295.428 146.496 294.936 145.207 294.936C143.918 294.936 142.834 295.428 141.955 296.412C141.076 297.396 140.637 298.814 140.637 300.666ZM156.562 291.332H159.305V289.926C159.305 288.355 159.469 287.184 159.797 286.41C160.137 285.637 160.752 285.01 161.643 284.529C162.545 284.037 163.682 283.791 165.053 283.791C166.459 283.791 167.836 284.002 169.184 284.424L168.516 287.869C167.73 287.682 166.975 287.588 166.248 287.588C165.533 287.588 165.018 287.758 164.701 288.098C164.396 288.426 164.244 289.064 164.244 290.014V291.332H167.936V295.217H164.244V310H159.305V295.217H156.562V291.332ZM32.6016 325.23H42.1113C44.2559 325.23 45.8906 325.395 47.0156 325.723C48.5273 326.168 49.8223 326.959 50.9004 328.096C51.9785 329.232 52.7988 330.627 53.3613 332.279C53.9238 333.92 54.2051 335.947 54.2051 338.361C54.2051 340.482 53.9414 342.311 53.4141 343.846C52.7695 345.721 51.8496 347.238 50.6543 348.398C49.752 349.277 48.5332 349.963 46.998 350.455C45.8496 350.818 44.3145 351 42.3926 351H32.6016V325.23ZM37.8047 329.59V346.658H41.6895C43.1426 346.658 44.1914 346.576 44.8359 346.412C45.6797 346.201 46.377 345.844 46.9277 345.34C47.4902 344.836 47.9473 344.01 48.2988 342.861C48.6504 341.701 48.8262 340.125 48.8262 338.133C48.8262 336.141 48.6504 334.611 48.2988 333.545C47.9473 332.479 47.4551 331.646 46.8223 331.049C46.1895 330.451 45.3867 330.047 44.4141 329.836C43.6875 329.672 42.2637 329.59 40.1426 329.59H37.8047ZM69.4102 345.059L74.332 345.885C73.6992 347.689 72.6973 349.066 71.3262 350.016C69.9668 350.953 68.2617 351.422 66.2109 351.422C62.9648 351.422 60.5625 350.361 59.0039 348.24C57.7734 346.541 57.1582 344.396 57.1582 341.807C57.1582 338.713 57.9668 336.293 59.584 334.547C61.2012 332.789 63.2461 331.91 65.7188 331.91C68.4961 331.91 70.6875 332.83 72.293 334.67C73.8984 336.498 74.666 339.305 74.5957 343.09H62.2207C62.2559 344.555 62.6543 345.697 63.416 346.518C64.1777 347.326 65.127 347.73 66.2637 347.73C67.0371 347.73 67.6875 347.52 68.2148 347.098C68.7422 346.676 69.1406 345.996 69.4102 345.059ZM69.6914 340.066C69.6562 338.637 69.2871 337.553 68.584 336.814C67.8809 336.064 67.0254 335.689 66.0176 335.689C64.9395 335.689 64.0488 336.082 63.3457 336.867C62.6426 337.652 62.2969 338.719 62.3086 340.066H69.6914ZM76.8984 345.674L81.8555 344.918C82.0664 345.879 82.4941 346.611 83.1387 347.115C83.7832 347.607 84.6855 347.854 85.8457 347.854C87.123 347.854 88.084 347.619 88.7285 347.15C89.1621 346.822 89.3789 346.383 89.3789 345.832C89.3789 345.457 89.2617 345.146 89.0273 344.9C88.7812 344.666 88.2305 344.449 87.375 344.25C83.3906 343.371 80.8652 342.568 79.7988 341.842C78.3223 340.834 77.584 339.434 77.584 337.641C77.584 336.023 78.2227 334.664 79.5 333.562C80.7773 332.461 82.7578 331.91 85.4414 331.91C87.9961 331.91 89.8945 332.326 91.1367 333.158C92.3789 333.99 93.2344 335.221 93.7031 336.85L89.0449 337.711C88.8457 336.984 88.4648 336.428 87.9023 336.041C87.3516 335.654 86.5605 335.461 85.5293 335.461C84.2285 335.461 83.2969 335.643 82.7344 336.006C82.3594 336.264 82.1719 336.598 82.1719 337.008C82.1719 337.359 82.3359 337.658 82.6641 337.904C83.1094 338.232 84.6445 338.695 87.2695 339.293C89.9062 339.891 91.7461 340.623 92.7891 341.49C93.8203 342.369 94.3359 343.594 94.3359 345.164C94.3359 346.875 93.6211 348.346 92.1914 349.576C90.7617 350.807 88.6465 351.422 85.8457 351.422C83.3027 351.422 81.2871 350.906 79.7988 349.875C78.3223 348.844 77.3555 347.443 76.8984 345.674ZM114.955 337.852L110.086 338.73C109.922 337.758 109.547 337.025 108.961 336.533C108.387 336.041 107.637 335.795 106.711 335.795C105.48 335.795 104.496 336.223 103.758 337.078C103.031 337.922 102.668 339.34 102.668 341.332C102.668 343.547 103.037 345.111 103.775 346.025C104.525 346.939 105.527 347.396 106.781 347.396C107.719 347.396 108.486 347.133 109.084 346.605C109.682 346.066 110.104 345.146 110.35 343.846L115.201 344.672C114.697 346.898 113.73 348.58 112.301 349.717C110.871 350.854 108.955 351.422 106.553 351.422C103.822 351.422 101.643 350.561 100.014 348.838C98.3965 347.115 97.5879 344.73 97.5879 341.684C97.5879 338.602 98.4023 336.205 100.031 334.494C101.66 332.771 103.863 331.91 106.641 331.91C108.914 331.91 110.719 332.402 112.055 333.387C113.402 334.359 114.369 335.848 114.955 337.852ZM129.527 345.059L134.449 345.885C133.816 347.689 132.814 349.066 131.443 350.016C130.084 350.953 128.379 351.422 126.328 351.422C123.082 351.422 120.68 350.361 119.121 348.24C117.891 346.541 117.275 344.396 117.275 341.807C117.275 338.713 118.084 336.293 119.701 334.547C121.318 332.789 123.363 331.91 125.836 331.91C128.613 331.91 130.805 332.83 132.41 334.67C134.016 336.498 134.783 339.305 134.713 343.09H122.338C122.373 344.555 122.771 345.697 123.533 346.518C124.295 347.326 125.244 347.73 126.381 347.73C127.154 347.73 127.805 347.52 128.332 347.098C128.859 346.676 129.258 345.996 129.527 345.059ZM129.809 340.066C129.773 338.637 129.404 337.553 128.701 336.814C127.998 336.064 127.143 335.689 126.135 335.689C125.057 335.689 124.166 336.082 123.463 336.867C122.76 337.652 122.414 338.719 122.426 340.066H129.809ZM155.736 351H150.797V341.473C150.797 339.457 150.691 338.156 150.48 337.57C150.27 336.973 149.924 336.51 149.443 336.182C148.975 335.854 148.406 335.689 147.738 335.689C146.883 335.689 146.115 335.924 145.436 336.393C144.756 336.861 144.287 337.482 144.029 338.256C143.783 339.029 143.66 340.459 143.66 342.545V351H138.721V332.332H143.309V335.074C144.938 332.965 146.988 331.91 149.461 331.91C150.551 331.91 151.547 332.109 152.449 332.508C153.352 332.895 154.031 333.393 154.488 334.002C154.957 334.611 155.279 335.303 155.455 336.076C155.643 336.85 155.736 337.957 155.736 339.398V351ZM169.324 332.332V336.27H165.949V343.793C165.949 345.316 165.979 346.207 166.037 346.465C166.107 346.711 166.254 346.916 166.477 347.08C166.711 347.244 166.992 347.326 167.32 347.326C167.777 347.326 168.439 347.168 169.307 346.852L169.729 350.684C168.58 351.176 167.279 351.422 165.826 351.422C164.936 351.422 164.133 351.275 163.418 350.982C162.703 350.678 162.176 350.291 161.836 349.822C161.508 349.342 161.279 348.697 161.15 347.889C161.045 347.314 160.992 346.154 160.992 344.408V336.27H158.725V332.332H160.992V328.623L165.949 325.74V332.332H169.324Z" fill="#B1B9EE"/>
<path d="M36.2754 509L30.123 483.23H35.4492L39.334 500.932L44.0449 483.23H50.2324L54.75 501.23L58.7051 483.23H63.9434L57.6855 509H52.166L47.0332 489.734L41.918 509H36.2754ZM71.502 483.23V492.705C73.0957 490.842 75 489.91 77.2148 489.91C78.3516 489.91 79.377 490.121 80.291 490.543C81.2051 490.965 81.8906 491.504 82.3477 492.16C82.8164 492.816 83.1328 493.543 83.2969 494.34C83.4727 495.137 83.5605 496.373 83.5605 498.049V509H78.6211V499.139C78.6211 497.182 78.5273 495.939 78.3398 495.412C78.1523 494.885 77.8184 494.469 77.3379 494.164C76.8691 493.848 76.2773 493.689 75.5625 493.689C74.7422 493.689 74.0098 493.889 73.3652 494.287C72.7207 494.686 72.2461 495.289 71.9414 496.098C71.6484 496.895 71.502 498.078 71.502 499.648V509H66.5625V483.23H71.502ZM92.2793 496.027L87.7969 495.219C88.3008 493.414 89.168 492.078 90.3984 491.211C91.6289 490.344 93.457 489.91 95.8828 489.91C98.0859 489.91 99.7266 490.174 100.805 490.701C101.883 491.217 102.639 491.879 103.072 492.688C103.518 493.484 103.74 494.955 103.74 497.1L103.688 502.865C103.688 504.506 103.764 505.719 103.916 506.504C104.08 507.277 104.379 508.109 104.812 509H99.9258C99.7969 508.672 99.6387 508.186 99.4512 507.541C99.3691 507.248 99.3105 507.055 99.2754 506.961C98.4316 507.781 97.5293 508.396 96.5684 508.807C95.6074 509.217 94.582 509.422 93.4922 509.422C91.5703 509.422 90.0527 508.9 88.9395 507.857C87.8379 506.814 87.2871 505.496 87.2871 503.902C87.2871 502.848 87.5391 501.91 88.043 501.09C88.5469 500.258 89.25 499.625 90.1523 499.191C91.0664 498.746 92.3789 498.359 94.0898 498.031C96.3984 497.598 97.998 497.193 98.8887 496.818V496.326C98.8887 495.377 98.6543 494.703 98.1855 494.305C97.7168 493.895 96.832 493.689 95.5312 493.689C94.6523 493.689 93.9668 493.865 93.4746 494.217C92.9824 494.557 92.584 495.16 92.2793 496.027ZM98.8887 500.035C98.2559 500.246 97.2539 500.498 95.8828 500.791C94.5117 501.084 93.6152 501.371 93.1934 501.652C92.5488 502.109 92.2266 502.689 92.2266 503.393C92.2266 504.084 92.4844 504.682 93 505.186C93.5156 505.689 94.1719 505.941 94.9688 505.941C95.8594 505.941 96.709 505.648 97.5176 505.062C98.1152 504.617 98.5078 504.072 98.6953 503.428C98.8242 503.006 98.8887 502.203 98.8887 501.02V500.035ZM117.188 490.332V494.27H113.812V501.793C113.812 503.316 113.842 504.207 113.9 504.465C113.971 504.711 114.117 504.916 114.34 505.08C114.574 505.244 114.855 505.326 115.184 505.326C115.641 505.326 116.303 505.168 117.17 504.852L117.592 508.684C116.443 509.176 115.143 509.422 113.689 509.422C112.799 509.422 111.996 509.275 111.281 508.982C110.566 508.678 110.039 508.291 109.699 507.822C109.371 507.342 109.143 506.697 109.014 505.889C108.908 505.314 108.855 504.154 108.855 502.408V494.27H106.588V490.332H108.855V486.623L113.812 483.74V490.332H117.188ZM130.635 487.801V483.23H135.574V487.801H130.635ZM130.635 509V490.332H135.574V509H130.635ZM138.914 503.674L143.871 502.918C144.082 503.879 144.51 504.611 145.154 505.115C145.799 505.607 146.701 505.854 147.861 505.854C149.139 505.854 150.1 505.619 150.744 505.15C151.178 504.822 151.395 504.383 151.395 503.832C151.395 503.457 151.277 503.146 151.043 502.9C150.797 502.666 150.246 502.449 149.391 502.25C145.406 501.371 142.881 500.568 141.814 499.842C140.338 498.834 139.6 497.434 139.6 495.641C139.6 494.023 140.238 492.664 141.516 491.562C142.793 490.461 144.773 489.91 147.457 489.91C150.012 489.91 151.91 490.326 153.152 491.158C154.395 491.99 155.25 493.221 155.719 494.85L151.061 495.711C150.861 494.984 150.48 494.428 149.918 494.041C149.367 493.654 148.576 493.461 147.545 493.461C146.244 493.461 145.312 493.643 144.75 494.006C144.375 494.264 144.188 494.598 144.188 495.008C144.188 495.359 144.352 495.658 144.68 495.904C145.125 496.232 146.66 496.695 149.285 497.293C151.922 497.891 153.762 498.623 154.805 499.49C155.836 500.369 156.352 501.594 156.352 503.164C156.352 504.875 155.637 506.346 154.207 507.576C152.777 508.807 150.662 509.422 147.861 509.422C145.318 509.422 143.303 508.906 141.814 507.875C140.338 506.844 139.371 505.443 138.914 503.674ZM32.6543 550V524.23H50.3203V528.59H37.8574V534.689H48.6152V539.049H37.8574V550H32.6543ZM54.5918 528.801V524.23H59.5312V528.801H54.5918ZM54.5918 550V531.332H59.5312V550H54.5918ZM81.5918 550H76.6523V540.473C76.6523 538.457 76.5469 537.156 76.3359 536.57C76.125 535.973 75.7793 535.51 75.2988 535.182C74.8301 534.854 74.2617 534.689 73.5938 534.689C72.7383 534.689 71.9707 534.924 71.291 535.393C70.6113 535.861 70.1426 536.482 69.8848 537.256C69.6387 538.029 69.5156 539.459 69.5156 541.545V550H64.5762V531.332H69.1641V534.074C70.793 531.965 72.8438 530.91 75.3164 530.91C76.4062 530.91 77.4023 531.109 78.3047 531.508C79.207 531.895 79.8867 532.393 80.3438 533.002C80.8125 533.611 81.1348 534.303 81.3105 535.076C81.498 535.85 81.5918 536.957 81.5918 538.398V550ZM103.6 550H98.6602V540.473C98.6602 538.457 98.5547 537.156 98.3438 536.57C98.1328 535.973 97.7871 535.51 97.3066 535.182C96.8379 534.854 96.2695 534.689 95.6016 534.689C94.7461 534.689 93.9785 534.924 93.2988 535.393C92.6191 535.861 92.1504 536.482 91.8926 537.256C91.6465 538.029 91.5234 539.459 91.5234 541.545V550H86.584V531.332H91.1719V534.074C92.8008 531.965 94.8516 530.91 97.3242 530.91C98.4141 530.91 99.4102 531.109 100.312 531.508C101.215 531.895 101.895 532.393 102.352 533.002C102.82 533.611 103.143 534.303 103.318 535.076C103.506 535.85 103.6 536.957 103.6 538.398V550ZM120.65 540.525V536.184H131.865V546.449C130.775 547.504 129.193 548.436 127.119 549.244C125.057 550.041 122.965 550.439 120.844 550.439C118.148 550.439 115.799 549.877 113.795 548.752C111.791 547.615 110.285 545.998 109.277 543.9C108.27 541.791 107.766 539.5 107.766 537.027C107.766 534.344 108.328 531.959 109.453 529.873C110.578 527.787 112.225 526.188 114.393 525.074C116.045 524.219 118.102 523.791 120.562 523.791C123.762 523.791 126.258 524.465 128.051 525.812C129.855 527.148 131.016 529 131.531 531.367L126.363 532.334C126 531.068 125.314 530.072 124.307 529.346C123.311 528.607 122.062 528.238 120.562 528.238C118.289 528.238 116.479 528.959 115.131 530.4C113.795 531.842 113.127 533.98 113.127 536.816C113.127 539.875 113.807 542.172 115.166 543.707C116.525 545.23 118.307 545.992 120.51 545.992C121.6 545.992 122.689 545.781 123.779 545.359C124.881 544.926 125.824 544.404 126.609 543.795V540.525H120.65ZM147.457 544.059L152.379 544.885C151.746 546.689 150.744 548.066 149.373 549.016C148.014 549.953 146.309 550.422 144.258 550.422C141.012 550.422 138.609 549.361 137.051 547.24C135.82 545.541 135.205 543.396 135.205 540.807C135.205 537.713 136.014 535.293 137.631 533.547C139.248 531.789 141.293 530.91 143.766 530.91C146.543 530.91 148.734 531.83 150.34 533.67C151.945 535.498 152.713 538.305 152.643 542.09H140.268C140.303 543.555 140.701 544.697 141.463 545.518C142.225 546.326 143.174 546.73 144.311 546.73C145.084 546.73 145.734 546.52 146.262 546.098C146.789 545.676 147.188 544.996 147.457 544.059ZM147.738 539.066C147.703 537.637 147.334 536.553 146.631 535.814C145.928 535.064 145.072 534.689 144.064 534.689C142.986 534.689 142.096 535.082 141.393 535.867C140.689 536.652 140.344 537.719 140.355 539.066H147.738ZM173.666 550H168.727V540.473C168.727 538.457 168.621 537.156 168.41 536.57C168.199 535.973 167.854 535.51 167.373 535.182C166.904 534.854 166.336 534.689 165.668 534.689C164.812 534.689 164.045 534.924 163.365 535.393C162.686 535.861 162.217 536.482 161.959 537.256C161.713 538.029 161.59 539.459 161.59 541.545V550H156.65V531.332H161.238V534.074C162.867 531.965 164.918 530.91 167.391 530.91C168.48 530.91 169.477 531.109 170.379 531.508C171.281 531.895 171.961 532.393 172.418 533.002C172.887 533.611 173.209 534.303 173.385 535.076C173.572 535.85 173.666 536.957 173.666 538.398V550ZM189.311 543.355H184.828C184.816 542.711 184.811 542.318 184.811 542.178C184.811 540.725 185.051 539.529 185.531 538.592C186.012 537.654 186.973 536.6 188.414 535.428C189.855 534.256 190.717 533.488 190.998 533.125C191.432 532.551 191.648 531.918 191.648 531.227C191.648 530.266 191.262 529.445 190.488 528.766C189.727 528.074 188.695 527.729 187.395 527.729C186.141 527.729 185.092 528.086 184.248 528.801C183.404 529.516 182.824 530.605 182.508 532.07L177.973 531.508C178.102 529.41 178.992 527.629 180.645 526.164C182.309 524.699 184.488 523.967 187.184 523.967C190.02 523.967 192.275 524.711 193.951 526.199C195.627 527.676 196.465 529.398 196.465 531.367C196.465 532.457 196.154 533.488 195.533 534.461C194.924 535.434 193.611 536.758 191.596 538.434C190.553 539.301 189.902 539.998 189.645 540.525C189.398 541.053 189.287 541.996 189.311 543.355ZM184.828 550V545.061H189.768V550H184.828Z" fill="#B1B9EE"/>
<rect x="2" y="2" width="787" height="570" rx="26" stroke="#B1B9EE" stroke-width="4"/>
<line x1="1" y1="259" x2="791" y2="259" stroke="#B1B9EE" stroke-width="4"/>
<line x1="1" y1="96" x2="791" y2="96" stroke="#B1B9EE" stroke-width="4"/>
<line x1="1" y1="458" x2="791" y2="458" stroke="#B1B9EE" stroke-width="4"/>
<line x1="300" y1="127" x2="569" y2="127" stroke="#B1B9EE" stroke-width="4"/>
<line x1="300" y1="289" x2="532" y2="289" stroke="#B1B9EE" stroke-width="4"/>
<line x1="623" y1="127" x2="697" y2="127" stroke="#B1B9EE" stroke-width="4"/>
<line x1="623" y1="341" x2="697" y2="341" stroke="#B1B9EE" stroke-width="4"/>
<line x1="623" y1="153" x2="742" y2="153" stroke="#B1B9EE" stroke-width="4"/>
<line x1="623" y1="489" x2="742" y2="489" stroke="#B1B9EE" stroke-width="4"/>
<line x1="623" y1="289" x2="742" y2="289" stroke="#B1B9EE" stroke-width="4"/>
<line x1="623" y1="177" x2="713" y2="177" stroke="#B1B9EE" stroke-width="4"/>
<line x1="623" y1="513" x2="713" y2="513" stroke="#B1B9EE" stroke-width="4"/>
<line x1="623" y1="315" x2="713" y2="315" stroke="#B1B9EE" stroke-width="4"/>
<line x1="713.034" y1="126" x2="771.034" y2="127" stroke="#B1B9EE" stroke-width="4"/>
<line x1="708.034" y1="341" x2="766.034" y2="342" stroke="#B1B9EE" stroke-width="4"/>
<line x1="300" y1="153" x2="532" y2="153" stroke="#B1B9EE" stroke-width="4"/>
<line x1="300" y1="315" x2="569" y2="315" stroke="#B1B9EE" stroke-width="4"/>
<line x1="300" y1="179" x2="553" y2="179" stroke="#B1B9EE" stroke-width="4"/>
<line x1="300" y1="341" x2="553" y2="341" stroke="#B1B9EE" stroke-width="4"/>
<line x1="301" y1="205" x2="570" y2="205" stroke="#B1B9EE" stroke-width="4"/>
<line x1="301" y1="367" x2="510" y2="367" stroke="#B1B9EE" stroke-width="4"/>
<line x1="301" y1="489" x2="510" y2="489" stroke="#B1B9EE" stroke-width="4"/>
<line x1="301" y1="231" x2="473" y2="231" stroke="#B1B9EE" stroke-width="4"/>
<line x1="301" y1="393" x2="560" y2="393" stroke="#B1B9EE" stroke-width="4"/>
<line x1="301" y1="515" x2="560" y2="515" stroke="#B1B9EE" stroke-width="4"/>
<line x1="301" y1="419" x2="539" y2="419" stroke="#B1B9EE" stroke-width="4"/>
<line x1="301" y1="541" x2="539" y2="541" stroke="#B1B9EE" stroke-width="4"/>
</svg>
