<svg width="838" height="708" viewBox="0 0 838 708" fill="none" xmlns="http://www.w3.org/2000/svg">
<rect x="198" y="199.453" width="638" height="495" rx="26" stroke="#B1B9EE" stroke-width="4"/>
<path d="M579.723 13.4619C594.853 13.8452 607 26.2308 607 41.4531V197.453H603V41.4531C603 28.1983 592.255 17.4531 579 17.4531H28C14.7452 17.4531 4 28.1983 4 41.4531V444.453C4 457.708 14.7452 468.453 28 468.453H196V472.453H28C12.7776 472.453 0.392087 460.306 0.00878906 445.176L0 444.453V41.4531C3.96395e-06 26.2308 12.1474 13.8452 27.2773 13.4619L28 13.4531H579L579.723 13.4619Z" fill="#B1B9EE"/>
<circle cx="456.5" cy="231.953" r="9.5" stroke="#B1B9EE" stroke-width="4"/>
<circle cx="272.881" cy="455.88" r="9.5" transform="rotate(-132.198 272.881 455.88)" stroke="#B1B9EE" stroke-width="4"/>
<circle cx="792.725" cy="357.429" r="9.5" transform="rotate(144.321 792.725 357.429)" stroke="#B1B9EE" stroke-width="4"/>
<circle cx="466.618" cy="644.469" r="9.5" transform="rotate(164.227 466.618 644.469)" stroke="#B1B9EE" stroke-width="4"/>
<circle cx="764.96" cy="577.292" r="9.5" transform="rotate(124.232 764.96 577.292)" stroke="#B1B9EE" stroke-width="4"/>
<circle cx="485.5" cy="220.953" r="9.5" stroke="#B1B9EE" stroke-width="4"/>
<circle cx="245.254" cy="441.784" r="9.5" transform="rotate(-132.198 245.254 441.784)" stroke="#B1B9EE" stroke-width="4"/>
<circle cx="775.584" cy="383.277" r="9.5" transform="rotate(144.321 775.584 383.277)" stroke="#B1B9EE" stroke-width="4"/>
<circle cx="441.7" cy="662.938" r="9.5" transform="rotate(164.227 441.7 662.938)" stroke="#B1B9EE" stroke-width="4"/>
<circle cx="757.742" cy="607.457" r="9.5" transform="rotate(124.232 757.742 607.457)" stroke="#B1B9EE" stroke-width="4"/>
<circle cx="773.976" cy="639.43" r="9.5" transform="rotate(124.232 773.976 639.43)" stroke="#B1B9EE" stroke-width="4"/>
<circle cx="754.976" cy="662.43" r="9.5" transform="rotate(124.232 754.976 662.43)" stroke="#B1B9EE" stroke-width="4"/>
<circle cx="729.976" cy="683.43" r="9.5" transform="rotate(124.232 729.976 683.43)" stroke="#B1B9EE" stroke-width="4"/>
<circle cx="803.976" cy="635.43" r="9.5" transform="rotate(124.232 803.976 635.43)" stroke="#B1B9EE" stroke-width="4"/>
<circle cx="780.976" cy="665.43" r="9.5" transform="rotate(124.232 780.976 665.43)" stroke="#B1B9EE" stroke-width="4"/>
<circle cx="481.194" cy="668.646" r="9.5" transform="rotate(164.227 481.194 668.646)" stroke="#B1B9EE" stroke-width="4"/>
<circle cx="791.667" cy="586.446" r="9.5" transform="rotate(124.232 791.667 586.446)" stroke="#B1B9EE" stroke-width="4"/>
<circle cx="479.5" cy="246.953" r="9.5" stroke="#B1B9EE" stroke-width="4"/>
<circle cx="268.545" cy="428.765" r="9.5" transform="rotate(-132.198 268.545 428.765)" stroke="#B1B9EE" stroke-width="4"/>
<circle cx="765.293" cy="358.659" r="9.5" transform="rotate(144.321 765.293 358.659)" stroke="#B1B9EE" stroke-width="4"/>
<circle cx="440.405" cy="636.286" r="9.5" transform="rotate(164.227 440.405 636.286)" stroke="#B1B9EE" stroke-width="4"/>
<circle cx="739.621" cy="587.871" r="9.5" transform="rotate(124.232 739.621 587.871)" stroke="#B1B9EE" stroke-width="4"/>
<circle cx="450.5" cy="258.953" r="9.5" stroke="#B1B9EE" stroke-width="4"/>
<circle cx="296.914" cy="442.189" r="9.5" transform="rotate(-132.198 296.914 442.189)" stroke="#B1B9EE" stroke-width="4"/>
<circle cx="781.852" cy="331.997" r="9.5" transform="rotate(144.321 781.852 331.997)" stroke="#B1B9EE" stroke-width="4"/>
<circle cx="465.051" cy="616.855" r="9.5" transform="rotate(164.227 465.051 616.855)" stroke="#B1B9EE" stroke-width="4"/>
<circle cx="746.011" cy="557.144" r="9.5" transform="rotate(124.232 746.011 557.144)" stroke="#B1B9EE" stroke-width="4"/>
<circle cx="479.5" cy="272.953" r="9.5" stroke="#B1B9EE" stroke-width="4"/>
<circle cx="287.807" cy="411.301" r="9.5" transform="rotate(-132.198 287.807 411.301)" stroke="#B1B9EE" stroke-width="4"/>
<circle cx="750.129" cy="337.54" r="9.5" transform="rotate(144.321 750.129 337.54)" stroke="#B1B9EE" stroke-width="4"/>
<circle cx="433.336" cy="611.265" r="9.5" transform="rotate(164.227 433.336 611.265)" stroke="#B1B9EE" stroke-width="4"/>
<circle cx="718.125" cy="573.246" r="9.5" transform="rotate(124.232 718.125 573.246)" stroke="#B1B9EE" stroke-width="4"/>
<circle cx="508.5" cy="265.953" r="9.5" stroke="#B1B9EE" stroke-width="4"/>
<circle cx="263.143" cy="394.519" r="9.5" transform="rotate(-132.198 263.143 394.519)" stroke="#B1B9EE" stroke-width="4"/>
<circle cx="730.654" cy="360.139" r="9.5" transform="rotate(144.321 730.654 360.139)" stroke="#B1B9EE" stroke-width="4"/>
<circle cx="407.332" cy="625.883" r="9.5" transform="rotate(164.227 407.332 625.883)" stroke="#B1B9EE" stroke-width="4"/>
<circle cx="707.597" cy="601.158" r="9.5" transform="rotate(124.232 707.597 601.158)" stroke="#B1B9EE" stroke-width="4"/>
<circle cx="508.5" cy="239.953" r="9.5" stroke="#B1B9EE" stroke-width="4"/>
<circle cx="243.881" cy="411.983" r="9.5" transform="rotate(-132.198 243.881 411.983)" stroke="#B1B9EE" stroke-width="4"/>
<circle cx="745.82" cy="381.259" r="9.5" transform="rotate(144.321 745.82 381.259)" stroke="#B1B9EE" stroke-width="4"/>
<circle cx="414.401" cy="650.905" r="9.5" transform="rotate(164.227 414.401 650.905)" stroke="#B1B9EE" stroke-width="4"/>
<circle cx="729.093" cy="615.784" r="9.5" transform="rotate(124.232 729.093 615.784)" stroke="#B1B9EE" stroke-width="4"/>
<circle cx="516.5" cy="213.953" r="9.5" stroke="#B1B9EE" stroke-width="4"/>
<circle cx="219.244" cy="423.52" r="9.5" transform="rotate(-132.198 219.244 423.52)" stroke="#B1B9EE" stroke-width="4"/>
<circle cx="754.484" cy="407.046" r="9.5" transform="rotate(144.321 754.484 407.046)" stroke="#B1B9EE" stroke-width="4"/>
<circle cx="413.768" cy="678.102" r="9.5" transform="rotate(164.227 413.768 678.102)" stroke="#B1B9EE" stroke-width="4"/>
<circle cx="746.089" cy="637.026" r="9.5" transform="rotate(124.232 746.089 637.026)" stroke="#B1B9EE" stroke-width="4"/>
<circle cx="536.5" cy="243.953" r="9.5" stroke="#B1B9EE" stroke-width="4"/>
<circle cx="228.035" cy="388.553" r="9.5" transform="rotate(-132.198 228.035 388.553)" stroke="#B1B9EE" stroke-width="4"/>
<circle cx="720.742" cy="394.343" r="9.5" transform="rotate(144.321 720.742 394.343)" stroke="#B1B9EE" stroke-width="4"/>
<circle cx="386.368" cy="654.668" r="9.5" transform="rotate(164.227 386.368 654.668)" stroke="#B1B9EE" stroke-width="4"/>
<circle cx="710.039" cy="636.685" r="9.5" transform="rotate(124.232 710.039 636.685)" stroke="#B1B9EE" stroke-width="4"/>
<circle cx="359.194" cy="675.646" r="9.5" transform="rotate(164.227 359.194 675.646)" stroke="#B1B9EE" stroke-width="4"/>
<circle cx="702.703" cy="670.22" r="9.5" transform="rotate(124.232 702.703 670.22)" stroke="#B1B9EE" stroke-width="4"/>
<circle cx="387.194" cy="682.646" r="9.5" transform="rotate(164.227 387.194 682.646)" stroke="#B1B9EE" stroke-width="4"/>
<circle cx="728.652" cy="657.587" r="9.5" transform="rotate(124.232 728.652 657.587)" stroke="#B1B9EE" stroke-width="4"/>
<circle cx="537.5" cy="273.953" r="9.5" stroke="#B1B9EE" stroke-width="4"/>
<circle cx="249.59" cy="367.661" r="9.5" transform="rotate(-132.198 249.59 367.661)" stroke="#B1B9EE" stroke-width="4"/>
<circle cx="702.434" cy="370.555" r="9.5" transform="rotate(144.321 702.434 370.555)" stroke="#B1B9EE" stroke-width="4"/>
<circle cx="377.25" cy="626.069" r="9.5" transform="rotate(164.227 377.25 626.069)" stroke="#B1B9EE" stroke-width="4"/>
<circle cx="684.671" cy="620.634" r="9.5" transform="rotate(124.232 684.671 620.634)" stroke="#B1B9EE" stroke-width="4"/>
<circle cx="271.244" cy="348.697" r="9.5" transform="rotate(-132.198 271.244 348.697)" stroke="#B1B9EE" stroke-width="4"/>
<circle cx="696.049" cy="344.502" r="9.5" transform="rotate(144.321 696.049 344.502)" stroke="#B1B9EE" stroke-width="4"/>
<circle cx="349.194" cy="622.646" r="9.5" transform="rotate(164.227 349.194 622.646)" stroke="#B1B9EE" stroke-width="4"/>
<circle cx="660.976" cy="636.044" r="9.5" transform="rotate(124.232 660.976 636.044)" stroke="#B1B9EE" stroke-width="4"/>
<circle cx="314.244" cy="395.697" r="9.5" transform="rotate(-132.198 314.244 395.697)" stroke="#B1B9EE" stroke-width="4"/>
<circle cx="737.627" cy="309.502" r="9.5" transform="rotate(144.321 737.627 309.502)" stroke="#B1B9EE" stroke-width="4"/>
<circle cx="493.194" cy="632.646" r="9.5" transform="rotate(164.227 493.194 632.646)" stroke="#B1B9EE" stroke-width="4"/>
<circle cx="777.722" cy="551.154" r="9.5" transform="rotate(124.232 777.722 551.154)" stroke="#B1B9EE" stroke-width="4"/>
<circle cx="315.244" cy="424.697" r="9.5" transform="rotate(-132.198 315.244 424.697)" stroke="#B1B9EE" stroke-width="4"/>
<circle cx="766.553" cy="311.8" r="9.5" transform="rotate(144.321 766.553 311.8)" stroke="#B1B9EE" stroke-width="4"/>
<circle cx="457.543" cy="592.656" r="9.5" transform="rotate(164.227 457.543 592.656)" stroke="#B1B9EE" stroke-width="4"/>
<circle cx="724.707" cy="543.43" r="9.5" transform="rotate(124.232 724.707 543.43)" stroke="#B1B9EE" stroke-width="4"/>
<circle cx="248.244" cy="473.697" r="9.5" transform="rotate(-132.198 248.244 473.697)" stroke="#B1B9EE" stroke-width="4"/>
<circle cx="806.049" cy="392.502" r="9.5" transform="rotate(144.321 806.049 392.502)" stroke="#B1B9EE" stroke-width="4"/>
<circle cx="458.194" cy="683.646" r="9.5" transform="rotate(164.227 458.194 683.646)" stroke="#B1B9EE" stroke-width="4"/>
<circle cx="783.687" cy="612.72" r="9.5" transform="rotate(124.232 783.687 612.72)" stroke="#B1B9EE" stroke-width="4"/>
<circle cx="504.5" cy="295.953" r="9.5" stroke="#B1B9EE" stroke-width="4"/>
<circle cx="288.053" cy="377.331" r="9.5" transform="rotate(-132.198 288.053 377.331)" stroke="#B1B9EE" stroke-width="4"/>
<circle cx="721.049" cy="332.502" r="9.5" transform="rotate(144.321 721.049 332.502)" stroke="#B1B9EE" stroke-width="4"/>
<circle cx="393.194" cy="601.646" r="9.5" transform="rotate(164.227 393.194 601.646)" stroke="#B1B9EE" stroke-width="4"/>
<circle cx="681.187" cy="591.677" r="9.5" transform="rotate(124.232 681.187 591.677)" stroke="#B1B9EE" stroke-width="4"/>
<circle cx="560.5" cy="258.953" r="9.5" stroke="#B1B9EE" stroke-width="4"/>
<circle cx="223.028" cy="360.697" r="9.5" transform="rotate(-132.198 223.028 360.697)" stroke="#B1B9EE" stroke-width="4"/>
<circle cx="783.049" cy="411.502" r="9.5" transform="rotate(144.321 783.049 411.502)" stroke="#B1B9EE" stroke-width="4"/>
<circle cx="359.194" cy="646.756" r="9.5" transform="rotate(164.227 359.194 646.756)" stroke="#B1B9EE" stroke-width="4"/>
<circle cx="684.132" cy="648.088" r="9.5" transform="rotate(124.232 684.132 648.088)" stroke="#B1B9EE" stroke-width="4"/>
<path d="M324 393.953C397.5 393.953 474.5 339.953 474.5 280.453" stroke="#B1B9EE" stroke-width="3" stroke-dasharray="4 4"/>
<path d="M66 212.453C174.907 212.453 289 147.748 289 76.4531" stroke="#B1B9EE" stroke-width="6" stroke-dasharray="4 4"/>
<path d="M172.428 393.229C171.943 234.776 221.659 68.6229 277 68.4533" stroke="#B1B9EE" stroke-width="8" stroke-dasharray="4 4"/>
<path d="M567.999 259.885C603.5 295.453 663 315.953 729 309.453" stroke="#B1B9EE" stroke-width="3" stroke-dasharray="4 4"/>
<path d="M377.001 197.453C372.331 153.057 343.63 106.071 296.187 74.4529" stroke="#B1B9EE" stroke-width="5" stroke-dasharray="4 4"/>
<path d="M196 252.453C167.373 226.553 120.382 213.332 69 221.233" stroke="#B1B9EE" stroke-width="10" stroke-dasharray="4 4"/>
<path d="M312.001 74.0291C358.035 120.423 434.919 147.432 520 139.453" stroke="#B1B9EE" stroke-width="3" stroke-dasharray="4 4"/>
<path d="M650.98 632.337C615.339 595.277 540.865 592.167 499.948 631.518" stroke="#B1B9EE" stroke-width="3" stroke-dasharray="4 4"/>
<path d="M447.5 267.953C377.5 358.453 377 475.953 391 592.953" stroke="#B1B9EE" stroke-width="3" stroke-dasharray="4 4"/>
<path d="M673.999 585.453C582.801 472.226 444.529 449.404 303.66 446.598" stroke="#B1B9EE" stroke-width="3" stroke-dasharray="4 4"/>
<path d="M710.001 567.453C597.628 495.792 440.918 470.341 283.14 455.84" stroke="#B1B9EE" stroke-width="3" stroke-dasharray="4 4"/>
<path d="M705 593.453C614.696 452.975 472.069 429.261 325.978 431.098" stroke="#B1B9EE" stroke-width="3" stroke-dasharray="4 4"/>
<path d="M472 254.453C393.981 356.37 393.425 488.693 409.028 620.453" stroke="#B1B9EE" stroke-width="3" stroke-dasharray="4 4"/>
<path d="M540.999 282.872C647.56 330.228 704.198 435.305 747.488 546.927" stroke="#B1B9EE" stroke-width="3" stroke-dasharray="4 4"/>
<path d="M694 367.453C574.168 342.121 433.195 373.695 295.165 415.474" stroke="#B1B9EE" stroke-width="3" stroke-dasharray="4 4"/>
<rect x="279" y="41.4531" width="33" height="33" stroke="#B1B9EE" stroke-width="4"/>
<rect x="33" y="199.453" width="33" height="33" stroke="#B1B9EE" stroke-width="4"/>
<rect x="164" y="395.453" width="33" height="33" stroke="#B1B9EE" stroke-width="4"/>
<rect x="522" y="131.453" width="33" height="33" stroke="#B1B9EE" stroke-width="4"/>
<circle cx="295.5" cy="57.9531" r="8.5" fill="#B1B9EE"/>
<circle cx="49.5" cy="215.953" r="8.5" fill="#B1B9EE"/>
<circle cx="180.5" cy="411.953" r="8.5" fill="#B1B9EE"/>
<circle cx="538.5" cy="147.953" r="8.5" fill="#B1B9EE"/>
</svg>
