<svg width="574" height="574" viewBox="0 0 574 574" fill="none" xmlns="http://www.w3.org/2000/svg">
<rect x="2" y="2" width="570" height="570" rx="26" stroke="#B1B9EE" stroke-width="4"/>
<rect x="21" y="18" width="81" height="81" rx="11" stroke="#B1B9EE" stroke-width="2"/>
<rect x="111" y="18" width="81" height="81" rx="11" stroke="#B1B9EE" stroke-width="2"/>
<rect x="201" y="18" width="81" height="81" rx="11" stroke="#B1B9EE" stroke-width="2"/>
<rect x="291" y="18" width="81" height="81" rx="11" fill="#B1B9EE" fill-opacity="0.52" stroke="#B1B9EE" stroke-width="2"/>
<rect x="381" y="18" width="81" height="81" rx="11" fill="#B1B9EE" fill-opacity="0.81" stroke="#B1B9EE" stroke-width="2"/>
<rect x="471" y="18" width="81" height="81" rx="11" stroke="#B1B9EE" stroke-width="2"/>
<rect x="21" y="108" width="81" height="81" rx="11" stroke="#B1B9EE" stroke-width="2"/>
<rect x="111" y="108" width="81" height="81" rx="11" fill="#B1B9EE" fill-opacity="0.52" stroke="#B1B9EE" stroke-width="2"/>
<rect x="201" y="108" width="81" height="81" rx="11" fill="#B1B9EE" fill-opacity="0.26" stroke="#B1B9EE" stroke-width="2"/>
<rect x="291" y="108" width="81" height="81" rx="11" stroke="#B1B9EE" stroke-width="2"/>
<rect x="381" y="108" width="81" height="81" rx="11" stroke="#B1B9EE" stroke-width="2"/>
<rect x="471" y="108" width="81" height="81" rx="11" stroke="#B1B9EE" stroke-width="2"/>
<rect x="21" y="199" width="81" height="81" rx="11" fill="#B1B9EE" fill-opacity="0.81" stroke="#B1B9EE" stroke-width="2"/>
<rect x="111" y="199" width="81" height="81" rx="11" stroke="#B1B9EE" stroke-width="2"/>
<rect x="201" y="199" width="81" height="81" rx="11" stroke="#B1B9EE" stroke-width="2"/>
<rect x="291" y="199" width="81" height="81" rx="11" fill="#B1B9EE" stroke="#B1B9EE" stroke-width="2"/>
<rect x="381" y="199" width="81" height="81" rx="11" fill="#B1B9EE" stroke="#B1B9EE" stroke-width="2"/>
<rect x="471" y="199" width="81" height="81" rx="11" fill="#B1B9EE" fill-opacity="0.26" stroke="#B1B9EE" stroke-width="2"/>
<rect x="21" y="291" width="81" height="81" rx="11" stroke="#B1B9EE" stroke-width="2"/>
<rect x="111" y="291" width="81" height="81" rx="11" stroke="#B1B9EE" stroke-width="2"/>
<rect x="201" y="291" width="81" height="81" rx="11" stroke="#B1B9EE" stroke-width="2"/>
<rect x="291" y="291" width="81" height="81" rx="11" fill="#B1B9EE" fill-opacity="0.26" stroke="#B1B9EE" stroke-width="2"/>
<rect x="381" y="291" width="81" height="81" rx="11" fill="#B1B9EE" fill-opacity="0.81" stroke="#B1B9EE" stroke-width="2"/>
<rect x="471" y="291" width="81" height="81" rx="11" stroke="#B1B9EE" stroke-width="2"/>
<rect x="21" y="383" width="81" height="81" rx="11" fill="#B1B9EE" stroke="#B1B9EE" stroke-width="2"/>
<rect x="111" y="383" width="81" height="81" rx="11" stroke="#B1B9EE" stroke-width="2"/>
<rect x="201" y="383" width="81" height="81" rx="11" stroke="#B1B9EE" stroke-width="2"/>
<rect x="291" y="383" width="81" height="81" rx="11" fill="#B1B9EE" fill-opacity="0.81" stroke="#B1B9EE" stroke-width="2"/>
<rect x="381" y="383" width="81" height="81" rx="11" fill="#B1B9EE" fill-opacity="0.52" stroke="#B1B9EE" stroke-width="2"/>
<rect x="471" y="383" width="81" height="81" rx="11" stroke="#B1B9EE" stroke-width="2"/>
<rect x="21" y="475" width="81" height="81" rx="11" fill="#B1B9EE" fill-opacity="0.81" stroke="#B1B9EE" stroke-width="2"/>
<rect x="111" y="475" width="81" height="81" rx="11" fill="#B1B9EE" fill-opacity="0.26" stroke="#B1B9EE" stroke-width="2"/>
<rect x="201" y="475" width="81" height="81" rx="11" stroke="#B1B9EE" stroke-width="2"/>
<rect x="291" y="475" width="81" height="81" rx="11" stroke="#B1B9EE" stroke-width="2"/>
<rect x="381" y="475" width="81" height="81" rx="11" stroke="#B1B9EE" stroke-width="2"/>
<rect x="471" y="475" width="81" height="81" rx="11" stroke="#B1B9EE" stroke-width="2"/>
</svg>
