<svg width="1114" height="695" viewBox="0 0 1114 695" fill="none" xmlns="http://www.w3.org/2000/svg">
<circle cx="61.924" cy="290.586" r="22.9415" stroke="#B1B9EE" stroke-width="4"/>
<path d="M134.875 207.16C134.144 208.359 133.641 209.713 133.427 211.16H28C14.7452 211.16 4 221.905 4 235.16V666.811C4.00013 680.065 14.7452 690.811 28 690.811H943C956.255 690.811 967 680.065 967 666.811V238H971V666.811L970.991 667.533C970.614 682.423 958.612 694.424 943.723 694.801L943 694.811H28L27.2773 694.801C12.3876 694.424 0.386127 682.423 0.00878906 667.533L0 666.811V235.16C0 219.696 12.536 207.16 28 207.16H134.875ZM314.625 207.16C313.894 208.359 313.391 209.713 313.177 211.16H154.692C154.478 209.713 153.975 208.359 153.244 207.16H314.625ZM691.328 207.16C690.597 208.359 690.095 209.713 689.88 211.16H334.442C334.228 209.713 333.725 208.359 332.994 207.16H691.328ZM736 210C736 210.389 736.01 210.775 736.025 211.16H711.146C710.931 209.713 710.429 208.359 709.697 207.16H736V210Z" fill="#B1B9EE"/>
<circle cx="144.059" cy="212.751" r="9.25066" stroke="#B1B9EE" stroke-width="3"/>
<circle cx="323.809" cy="212.751" r="9.25066" stroke="#B1B9EE" stroke-width="3"/>
<circle cx="700.512" cy="212.751" r="9.25066" stroke="#B1B9EE" stroke-width="3"/>
<circle cx="395.625" cy="290.586" r="22.9415" stroke="#B1B9EE" stroke-width="4"/>
<circle cx="225.334" cy="361.97" r="22.9415" stroke="#B1B9EE" stroke-width="4"/>
<circle cx="495.391" cy="361.97" r="22.9415" stroke="#B1B9EE" stroke-width="4"/>
<circle cx="61.924" cy="433.355" r="22.9415" stroke="#B1B9EE" stroke-width="4"/>
<circle cx="495.391" cy="433.355" r="22.9415" stroke="#B1B9EE" stroke-width="4"/>
<circle cx="225.334" cy="504.738" r="22.9415" stroke="#B1B9EE" stroke-width="4"/>
<circle cx="873.815" cy="504.738" r="22.9415" stroke="#B1B9EE" stroke-width="4"/>
<circle cx="614.938" cy="576.123" r="22.9415" stroke="#B1B9EE" stroke-width="4"/>
<circle cx="761.147" cy="647.508" r="22.9415" stroke="#B1B9EE" stroke-width="4"/>
<line x1="85.1445" y1="289.445" x2="170.29" y2="289.445" stroke="#B1B9EE" stroke-width="4" stroke-dasharray="4 2"/>
<line x1="85.1445" y1="433.074" x2="170.29" y2="433.074" stroke="#B1B9EE" stroke-width="4" stroke-dasharray="4 2"/>
<line x1="248.555" y1="504.459" x2="333.7" y2="504.459" stroke="#B1B9EE" stroke-width="4" stroke-dasharray="4 2"/>
<line x1="639.879" y1="575.844" x2="725.024" y2="575.844" stroke="#B1B9EE" stroke-width="4" stroke-dasharray="4 2"/>
<line x1="420.566" y1="290.306" x2="456.689" y2="290.306" stroke="#B1B9EE" stroke-width="4" stroke-dasharray="4 2"/>
<line x1="248.555" y1="361.69" x2="284.677" y2="361.69" stroke="#B1B9EE" stroke-width="4" stroke-dasharray="4 2"/>
<line x1="520.332" y1="361.69" x2="556.454" y2="361.69" stroke="#B1B9EE" stroke-width="4" stroke-dasharray="4 2"/>
<line x1="520.332" y1="434.795" x2="556.454" y2="434.795" stroke="#B1B9EE" stroke-width="4" stroke-dasharray="4 2"/>
<line x1="786.088" y1="647.228" x2="822.21" y2="647.228" stroke="#B1B9EE" stroke-width="4" stroke-dasharray="4 2"/>
<line x1="897.035" y1="504.459" x2="933.157" y2="504.459" stroke="#B1B9EE" stroke-width="4" stroke-dasharray="4 2"/>
<rect x="161.689" y="285.426" width="8.60053" height="8.60053" fill="#B1B9EE"/>
<rect x="161.689" y="429.054" width="8.60053" height="8.60053" fill="#B1B9EE"/>
<rect x="325.1" y="500.438" width="8.60053" height="8.60053" fill="#B1B9EE"/>
<rect x="716.424" y="571.823" width="8.60053" height="8.60053" fill="#B1B9EE"/>
<rect x="452.389" y="286.285" width="8.60053" height="8.60053" fill="#B1B9EE"/>
<rect x="552.154" y="357.67" width="8.60053" height="8.60053" fill="#B1B9EE"/>
<rect x="280.377" y="357.67" width="8.60053" height="8.60053" fill="#B1B9EE"/>
<rect x="552.154" y="430.774" width="8.60053" height="8.60053" fill="#B1B9EE"/>
<rect x="817.91" y="643.207" width="8.60053" height="8.60053" fill="#B1B9EE"/>
<rect x="928.857" y="500.438" width="8.60053" height="8.60053" fill="#B1B9EE"/>
<path d="M169 290.155C193.081 307.786 202.542 321.977 211.143 344.339" stroke="#B1B9EE" stroke-width="2"/>
<path d="M168.57 433.355C176.741 409.703 190.932 391.642 209.423 379.602" stroke="#B1B9EE" stroke-width="2"/>
<path d="M165.131 289.296C197.813 364.121 208.564 407.553 214.154 483.668" stroke="#B1B9EE" stroke-width="2"/>
<path d="M166.85 433.784C190.071 452.275 199.962 466.036 208.132 490.118" stroke="#B1B9EE" stroke-width="2"/>
<path d="M285.107 361.54C310.909 330.578 335.421 311.227 374.553 300.046" stroke="#B1B9EE" stroke-width="2"/>
<path d="M331.121 505.599C335.421 423.894 347.892 373.15 380.144 308.646" stroke="#B1B9EE" stroke-width="2"/>
<path d="M458.838 291.445C473.459 309.076 479.479 320.257 483.779 341.328" stroke="#B1B9EE" stroke-width="2"/>
<path d="M456.258 291.445C467.869 341.328 473.459 372.72 475.179 422.173" stroke="#B1B9EE" stroke-width="2"/>
<path d="M556.885 435.505C583.546 476.787 593.437 508.179 599.457 558.492" stroke="#B1B9EE" stroke-width="2"/>
<path d="M558.174 363.26C590.426 435.504 600.746 478.937 606.337 555.482" stroke="#B1B9EE" stroke-width="2"/>
<path d="M721.584 576.983C740.935 591.604 746.095 605.365 749.536 626.866" stroke="#B1B9EE" stroke-width="2"/>
<path d="M823.07 647.077C823.07 593.324 833.391 558.492 857.042 521.939" stroke="#B1B9EE" stroke-width="2"/>
<path d="M84.2852 282.846C126.858 282.846 144.059 252.314 144.059 223.502" stroke="#B1B9EE" stroke-width="2" stroke-dasharray="8 4"/>
<path d="M243.395 489.257C323.379 489.257 323.379 282.845 323.379 222.211" stroke="#B1B9EE" stroke-width="2" stroke-dasharray="8 4"/>
<path d="M634.719 563.223C698.363 563.223 701.373 360.68 701.373 222.642" stroke="#B1B9EE" stroke-width="2" stroke-dasharray="8 4"/>
<path d="M844.148 34V23.8984H840.375V22.5469H849.453V23.8984H845.664V34H844.148ZM850.836 34V22.5469H852.242V26.6562C852.898 25.8958 853.727 25.5156 854.727 25.5156C855.341 25.5156 855.875 25.638 856.328 25.8828C856.781 26.1224 857.104 26.4557 857.297 26.8828C857.495 27.3099 857.594 27.9297 857.594 28.7422V34H856.188V28.7422C856.188 28.0391 856.034 27.5286 855.727 27.2109C855.424 26.888 854.995 26.7266 854.438 26.7266C854.021 26.7266 853.628 26.8359 853.258 27.0547C852.893 27.2682 852.633 27.5599 852.477 27.9297C852.32 28.2995 852.242 28.8099 852.242 29.4609V34H850.836ZM865.422 31.3281L866.875 31.5078C866.646 32.3568 866.221 33.0156 865.602 33.4844C864.982 33.9531 864.19 34.1875 863.227 34.1875C862.013 34.1875 861.049 33.8151 860.336 33.0703C859.628 32.3203 859.273 31.2708 859.273 29.9219C859.273 28.526 859.633 27.4427 860.352 26.6719C861.07 25.901 862.003 25.5156 863.148 25.5156C864.258 25.5156 865.164 25.8932 865.867 26.6484C866.57 27.4036 866.922 28.4661 866.922 29.8359C866.922 29.9193 866.919 30.0443 866.914 30.2109H860.727C860.779 31.1224 861.036 31.8203 861.5 32.3047C861.964 32.7891 862.542 33.0312 863.234 33.0312C863.75 33.0312 864.19 32.8958 864.555 32.625C864.919 32.3542 865.208 31.9219 865.422 31.3281ZM860.805 29.0547H865.438C865.375 28.3568 865.198 27.8333 864.906 27.4844C864.458 26.9427 863.878 26.6719 863.164 26.6719C862.518 26.6719 861.974 26.888 861.531 27.3203C861.094 27.7526 860.852 28.3307 860.805 29.0547ZM873.312 34V22.5469H881.594V23.8984H874.828V27.4062H881.164V28.75H874.828V32.6484H881.859V34H873.312ZM883.773 34V25.7031H885.039V26.8828C885.648 25.9714 886.529 25.5156 887.68 25.5156C888.18 25.5156 888.638 25.6068 889.055 25.7891C889.477 25.9661 889.792 26.2005 890 26.4922C890.208 26.7839 890.354 27.1302 890.438 27.5312C890.49 27.7917 890.516 28.2474 890.516 28.8984V34H889.109V28.9531C889.109 28.3802 889.055 27.9531 888.945 27.6719C888.836 27.3854 888.641 27.1589 888.359 26.9922C888.083 26.8203 887.758 26.7344 887.383 26.7344C886.784 26.7344 886.266 26.9245 885.828 27.3047C885.396 27.6849 885.18 28.4062 885.18 29.4688V34H883.773ZM898.062 34V32.9531C897.536 33.776 896.763 34.1875 895.742 34.1875C895.081 34.1875 894.471 34.0052 893.914 33.6406C893.362 33.276 892.932 32.7682 892.625 32.1172C892.323 31.4609 892.172 30.7083 892.172 29.8594C892.172 29.0312 892.31 28.2812 892.586 27.6094C892.862 26.9323 893.276 26.4141 893.828 26.0547C894.38 25.6953 894.997 25.5156 895.68 25.5156C896.18 25.5156 896.625 25.6224 897.016 25.8359C897.406 26.0443 897.724 26.3177 897.969 26.6562V22.5469H899.367V34H898.062ZM893.617 29.8594C893.617 30.9219 893.841 31.7161 894.289 32.2422C894.737 32.7682 895.266 33.0312 895.875 33.0312C896.49 33.0312 897.01 32.7812 897.438 32.2812C897.87 31.776 898.086 31.0078 898.086 29.9766C898.086 28.8411 897.867 28.0078 897.43 27.4766C896.992 26.9453 896.453 26.6797 895.812 26.6797C895.188 26.6797 894.664 26.9349 894.242 27.4453C893.826 27.9557 893.617 28.7604 893.617 29.8594ZM901.586 37.1797V25.7031H902.867V26.7812C903.169 26.3594 903.51 26.0443 903.891 25.8359C904.271 25.6224 904.732 25.5156 905.273 25.5156C905.982 25.5156 906.607 25.6979 907.148 26.0625C907.69 26.4271 908.099 26.9427 908.375 27.6094C908.651 28.2708 908.789 28.9974 908.789 29.7891C908.789 30.638 908.635 31.4036 908.328 32.0859C908.026 32.763 907.583 33.2839 907 33.6484C906.422 34.0078 905.812 34.1875 905.172 34.1875C904.703 34.1875 904.281 34.0885 903.906 33.8906C903.536 33.6927 903.232 33.4427 902.992 33.1406V37.1797H901.586ZM902.859 29.8984C902.859 30.9661 903.076 31.7552 903.508 32.2656C903.94 32.776 904.464 33.0312 905.078 33.0312C905.703 33.0312 906.237 32.7682 906.68 32.2422C907.128 31.7109 907.352 30.8906 907.352 29.7812C907.352 28.724 907.133 27.9323 906.695 27.4062C906.263 26.8802 905.745 26.6172 905.141 26.6172C904.542 26.6172 904.01 26.8984 903.547 27.4609C903.089 28.0182 902.859 28.8307 902.859 29.8984ZM909.969 29.8516C909.969 28.3151 910.396 27.1771 911.25 26.4375C911.964 25.8229 912.833 25.5156 913.859 25.5156C915 25.5156 915.932 25.8906 916.656 26.6406C917.38 27.3854 917.742 28.4167 917.742 29.7344C917.742 30.8021 917.581 31.6432 917.258 32.2578C916.94 32.8672 916.474 33.3411 915.859 33.6797C915.25 34.0182 914.583 34.1875 913.859 34.1875C912.698 34.1875 911.758 33.8151 911.039 33.0703C910.326 32.3255 909.969 31.2526 909.969 29.8516ZM911.414 29.8516C911.414 30.9141 911.646 31.7109 912.109 32.2422C912.573 32.7682 913.156 33.0312 913.859 33.0312C914.557 33.0312 915.138 32.7656 915.602 32.2344C916.065 31.7031 916.297 30.8932 916.297 29.8047C916.297 28.7786 916.062 28.0026 915.594 27.4766C915.13 26.9453 914.552 26.6797 913.859 26.6797C913.156 26.6797 912.573 26.9427 912.109 27.4688C911.646 27.9948 911.414 28.7891 911.414 29.8516ZM919.406 24.1641V22.5469H920.812V24.1641H919.406ZM919.406 34V25.7031H920.812V34H919.406ZM922.961 34V25.7031H924.227V26.8828C924.836 25.9714 925.716 25.5156 926.867 25.5156C927.367 25.5156 927.826 25.6068 928.242 25.7891C928.664 25.9661 928.979 26.2005 929.188 26.4922C929.396 26.7839 929.542 27.1302 929.625 27.5312C929.677 27.7917 929.703 28.2474 929.703 28.8984V34H928.297V28.9531C928.297 28.3802 928.242 27.9531 928.133 27.6719C928.023 27.3854 927.828 27.1589 927.547 26.9922C927.271 26.8203 926.945 26.7344 926.57 26.7344C925.971 26.7344 925.453 26.9245 925.016 27.3047C924.583 27.6849 924.367 28.4062 924.367 29.4688V34H922.961ZM934.938 32.7422L935.141 33.9844C934.745 34.0677 934.391 34.1094 934.078 34.1094C933.568 34.1094 933.172 34.0286 932.891 33.8672C932.609 33.7057 932.411 33.4948 932.297 33.2344C932.182 32.9688 932.125 32.4141 932.125 31.5703V26.7969H931.094V25.7031H932.125V23.6484L933.523 22.8047V25.7031H934.938V26.7969H933.523V31.6484C933.523 32.0495 933.547 32.3073 933.594 32.4219C933.646 32.5365 933.727 32.6276 933.836 32.6953C933.951 32.763 934.112 32.7969 934.32 32.7969C934.477 32.7969 934.682 32.7786 934.938 32.7422ZM940.891 34V22.5469H945.188C946.062 22.5469 946.763 22.6641 947.289 22.8984C947.82 23.1276 948.234 23.4844 948.531 23.9688C948.833 24.4479 948.984 24.9505 948.984 25.4766C948.984 25.9661 948.852 26.4271 948.586 26.8594C948.32 27.2917 947.919 27.6406 947.383 27.9062C948.076 28.1094 948.607 28.4557 948.977 28.9453C949.352 29.4349 949.539 30.013 949.539 30.6797C949.539 31.2161 949.424 31.7161 949.195 32.1797C948.971 32.638 948.693 32.9922 948.359 33.2422C948.026 33.4922 947.607 33.6823 947.102 33.8125C946.602 33.9375 945.987 34 945.258 34H940.891ZM942.406 27.3594H944.883C945.555 27.3594 946.036 27.3151 946.328 27.2266C946.714 27.112 947.003 26.9219 947.195 26.6562C947.393 26.3906 947.492 26.0573 947.492 25.6562C947.492 25.276 947.401 24.9427 947.219 24.6562C947.036 24.3646 946.776 24.1667 946.438 24.0625C946.099 23.9531 945.518 23.8984 944.695 23.8984H942.406V27.3594ZM942.406 32.6484H945.258C945.747 32.6484 946.091 32.6302 946.289 32.5938C946.638 32.5312 946.93 32.4271 947.164 32.2812C947.398 32.1354 947.591 31.9245 947.742 31.6484C947.893 31.3672 947.969 31.0443 947.969 30.6797C947.969 30.2526 947.859 29.8828 947.641 29.5703C947.422 29.2526 947.117 29.0312 946.727 28.9062C946.341 28.776 945.784 28.7109 945.055 28.7109H942.406V32.6484ZM951.43 34V25.7031H952.695V26.9609C953.018 26.3724 953.315 25.9844 953.586 25.7969C953.862 25.6094 954.164 25.5156 954.492 25.5156C954.966 25.5156 955.448 25.6667 955.938 25.9688L955.453 27.2734C955.109 27.0703 954.766 26.9688 954.422 26.9688C954.115 26.9688 953.839 27.0625 953.594 27.25C953.349 27.4323 953.174 27.6875 953.07 28.0156C952.914 28.5156 952.836 29.0625 952.836 29.6562V34H951.43ZM956.25 29.8516C956.25 28.3151 956.677 27.1771 957.531 26.4375C958.245 25.8229 959.115 25.5156 960.141 25.5156C961.281 25.5156 962.214 25.8906 962.938 26.6406C963.661 27.3854 964.023 28.4167 964.023 29.7344C964.023 30.8021 963.862 31.6432 963.539 32.2578C963.221 32.8672 962.755 33.3411 962.141 33.6797C961.531 34.0182 960.865 34.1875 960.141 34.1875C958.979 34.1875 958.039 33.8151 957.32 33.0703C956.607 32.3255 956.25 31.2526 956.25 29.8516ZM957.695 29.8516C957.695 30.9141 957.927 31.7109 958.391 32.2422C958.854 32.7682 959.438 33.0312 960.141 33.0312C960.839 33.0312 961.419 32.7656 961.883 32.2344C962.346 31.7031 962.578 30.8932 962.578 29.8047C962.578 28.7786 962.344 28.0026 961.875 27.4766C961.411 26.9453 960.833 26.6797 960.141 26.6797C959.438 26.6797 958.854 26.9427 958.391 27.4688C957.927 27.9948 957.695 28.7891 957.695 29.8516ZM967.211 34L964.672 25.7031H966.125L967.445 30.4922L967.938 32.2734C967.958 32.1849 968.102 31.6146 968.367 30.5625L969.688 25.7031H971.133L972.375 30.5156L972.789 32.1016L973.266 30.5L974.688 25.7031H976.055L973.461 34H972L970.68 29.0312L970.359 27.6172L968.68 34H967.211ZM976.68 31.5234L978.07 31.3047C978.148 31.862 978.365 32.2891 978.719 32.5859C979.078 32.8828 979.578 33.0312 980.219 33.0312C980.865 33.0312 981.344 32.901 981.656 32.6406C981.969 32.375 982.125 32.0651 982.125 31.7109C982.125 31.3932 981.987 31.1432 981.711 30.9609C981.518 30.8359 981.039 30.6771 980.273 30.4844C979.242 30.224 978.526 30 978.125 29.8125C977.729 29.6198 977.427 29.3568 977.219 29.0234C977.016 28.6849 976.914 28.3125 976.914 27.9062C976.914 27.5365 976.997 27.1953 977.164 26.8828C977.336 26.5651 977.568 26.3021 977.859 26.0938C978.078 25.9323 978.375 25.7969 978.75 25.6875C979.13 25.5729 979.536 25.5156 979.969 25.5156C980.62 25.5156 981.19 25.6094 981.68 25.7969C982.174 25.9844 982.539 26.2396 982.773 26.5625C983.008 26.8802 983.169 27.3073 983.258 27.8438L981.883 28.0312C981.82 27.6042 981.638 27.2708 981.336 27.0312C981.039 26.7917 980.617 26.6719 980.07 26.6719C979.424 26.6719 978.964 26.7786 978.688 26.9922C978.411 27.2057 978.273 27.4557 978.273 27.7422C978.273 27.9245 978.331 28.0885 978.445 28.2344C978.56 28.3854 978.74 28.5104 978.984 28.6094C979.125 28.6615 979.539 28.7812 980.227 28.9688C981.221 29.2344 981.914 29.4531 982.305 29.625C982.701 29.7917 983.01 30.0365 983.234 30.3594C983.458 30.6823 983.57 31.0833 983.57 31.5625C983.57 32.0312 983.432 32.474 983.156 32.8906C982.885 33.3021 982.492 33.6224 981.977 33.8516C981.461 34.0755 980.878 34.1875 980.227 34.1875C979.148 34.1875 978.326 33.9635 977.758 33.5156C977.195 33.0677 976.836 32.4036 976.68 31.5234ZM990.922 31.3281L992.375 31.5078C992.146 32.3568 991.721 33.0156 991.102 33.4844C990.482 33.9531 989.69 34.1875 988.727 34.1875C987.513 34.1875 986.549 33.8151 985.836 33.0703C985.128 32.3203 984.773 31.2708 984.773 29.9219C984.773 28.526 985.133 27.4427 985.852 26.6719C986.57 25.901 987.503 25.5156 988.648 25.5156C989.758 25.5156 990.664 25.8932 991.367 26.6484C992.07 27.4036 992.422 28.4661 992.422 29.8359C992.422 29.9193 992.419 30.0443 992.414 30.2109H986.227C986.279 31.1224 986.536 31.8203 987 32.3047C987.464 32.7891 988.042 33.0312 988.734 33.0312C989.25 33.0312 989.69 32.8958 990.055 32.625C990.419 32.3542 990.708 31.9219 990.922 31.3281ZM986.305 29.0547H990.938C990.875 28.3568 990.698 27.8333 990.406 27.4844C989.958 26.9427 989.378 26.6719 988.664 26.6719C988.018 26.6719 987.474 26.888 987.031 27.3203C986.594 27.7526 986.352 28.3307 986.305 29.0547ZM994.133 34V25.7031H995.398V26.9609C995.721 26.3724 996.018 25.9844 996.289 25.7969C996.565 25.6094 996.867 25.5156 997.195 25.5156C997.669 25.5156 998.151 25.6667 998.641 25.9688L998.156 27.2734C997.812 27.0703 997.469 26.9688 997.125 26.9688C996.818 26.9688 996.542 27.0625 996.297 27.25C996.052 27.4323 995.878 27.6875 995.773 28.0156C995.617 28.5156 995.539 29.0625 995.539 29.6562V34H994.133Z" fill="#9BA5E5"/>
<path d="M841.445 45.6836H846.729C847.92 45.6836 848.828 45.7747 849.453 45.957C850.293 46.2044 851.012 46.6439 851.611 47.2754C852.21 47.9069 852.666 48.6816 852.979 49.5996C853.291 50.5111 853.447 51.6374 853.447 52.9785C853.447 54.1569 853.301 55.1725 853.008 56.0254C852.65 57.0671 852.139 57.9102 851.475 58.5547C850.973 59.043 850.296 59.4238 849.443 59.6973C848.805 59.8991 847.952 60 846.885 60H841.445V45.6836ZM844.336 48.1055V57.5879H846.494C847.301 57.5879 847.884 57.5423 848.242 57.4512C848.711 57.334 849.098 57.1354 849.404 56.8555C849.717 56.5755 849.971 56.1165 850.166 55.4785C850.361 54.834 850.459 53.9583 850.459 52.8516C850.459 51.7448 850.361 50.8952 850.166 50.3027C849.971 49.7103 849.697 49.248 849.346 48.916C848.994 48.584 848.548 48.3594 848.008 48.2422C847.604 48.151 846.813 48.1055 845.635 48.1055H844.336ZM861.895 56.6992L864.629 57.1582C864.277 58.1608 863.721 58.9258 862.959 59.4531C862.204 59.974 861.257 60.2344 860.117 60.2344C858.314 60.2344 856.979 59.6452 856.113 58.4668C855.43 57.5228 855.088 56.3314 855.088 54.8926C855.088 53.1738 855.537 51.8294 856.436 50.8594C857.334 49.8828 858.47 49.3945 859.844 49.3945C861.387 49.3945 862.604 49.9056 863.496 50.9277C864.388 51.9434 864.814 53.5026 864.775 55.6055H857.9C857.92 56.4193 858.141 57.054 858.564 57.5098C858.988 57.959 859.515 58.1836 860.146 58.1836C860.576 58.1836 860.938 58.0664 861.23 57.832C861.523 57.5977 861.745 57.2201 861.895 56.6992ZM862.051 53.9258C862.031 53.1315 861.826 52.5293 861.436 52.1191C861.045 51.7025 860.57 51.4941 860.01 51.4941C859.411 51.4941 858.916 51.7122 858.525 52.1484C858.135 52.5846 857.943 53.1771 857.949 53.9258H862.051ZM869.873 60L865.693 49.6289H868.574L870.527 54.9219L871.094 56.6895C871.243 56.2402 871.338 55.944 871.377 55.8008C871.468 55.5078 871.566 55.2148 871.67 54.9219L873.643 49.6289H876.465L872.344 60H869.873ZM884.16 56.6992L886.895 57.1582C886.543 58.1608 885.986 58.9258 885.225 59.4531C884.469 59.974 883.522 60.2344 882.383 60.2344C880.579 60.2344 879.245 59.6452 878.379 58.4668C877.695 57.5228 877.354 56.3314 877.354 54.8926C877.354 53.1738 877.803 51.8294 878.701 50.8594C879.6 49.8828 880.736 49.3945 882.109 49.3945C883.652 49.3945 884.87 49.9056 885.762 50.9277C886.654 51.9434 887.08 53.5026 887.041 55.6055H880.166C880.186 56.4193 880.407 57.054 880.83 57.5098C881.253 57.959 881.781 58.1836 882.412 58.1836C882.842 58.1836 883.203 58.0664 883.496 57.832C883.789 57.5977 884.01 57.2201 884.16 56.6992ZM884.316 53.9258C884.297 53.1315 884.092 52.5293 883.701 52.1191C883.311 51.7025 882.835 51.4941 882.275 51.4941C881.676 51.4941 881.182 51.7122 880.791 52.1484C880.4 52.5846 880.208 53.1771 880.215 53.9258H884.316ZM889.287 60V45.6836H892.031V60H889.287ZM894.219 54.668C894.219 53.7565 894.443 52.8743 894.893 52.0215C895.342 51.1686 895.977 50.5176 896.797 50.0684C897.624 49.6191 898.545 49.3945 899.561 49.3945C901.13 49.3945 902.415 49.9056 903.418 50.9277C904.421 51.9434 904.922 53.2292 904.922 54.7852C904.922 56.3542 904.414 57.6562 903.398 58.6914C902.389 59.7201 901.117 60.2344 899.58 60.2344C898.63 60.2344 897.721 60.0195 896.855 59.5898C895.996 59.1602 895.342 58.5319 894.893 57.7051C894.443 56.8717 894.219 55.8594 894.219 54.668ZM897.031 54.8145C897.031 55.8431 897.275 56.6309 897.764 57.1777C898.252 57.7246 898.854 57.998 899.57 57.998C900.286 57.998 900.885 57.7246 901.367 57.1777C901.855 56.6309 902.1 55.8366 902.1 54.7949C902.1 53.7793 901.855 52.998 901.367 52.4512C900.885 51.9043 900.286 51.6309 899.57 51.6309C898.854 51.6309 898.252 51.9043 897.764 52.4512C897.275 52.998 897.031 53.7858 897.031 54.8145ZM907.002 49.6289H909.561V51.1523C909.893 50.6315 910.342 50.2083 910.908 49.8828C911.475 49.5573 912.103 49.3945 912.793 49.3945C913.997 49.3945 915.02 49.8665 915.859 50.8105C916.699 51.7546 917.119 53.0697 917.119 54.7559C917.119 56.4876 916.696 57.8353 915.85 58.7988C915.003 59.7559 913.978 60.2344 912.773 60.2344C912.201 60.2344 911.68 60.1204 911.211 59.8926C910.749 59.6647 910.26 59.2741 909.746 58.7207V63.9453H907.002V49.6289ZM909.717 54.6387C909.717 55.804 909.948 56.6667 910.41 57.2266C910.872 57.7799 911.436 58.0566 912.1 58.0566C912.738 58.0566 913.268 57.8027 913.691 57.2949C914.115 56.7806 914.326 55.9408 914.326 54.7754C914.326 53.6882 914.108 52.8809 913.672 52.3535C913.236 51.8262 912.695 51.5625 912.051 51.5625C911.38 51.5625 910.824 51.8229 910.381 52.3438C909.938 52.8581 909.717 53.623 909.717 54.6387ZM919.102 49.6289H921.631V51.0449C922.536 49.9447 923.613 49.3945 924.863 49.3945C925.527 49.3945 926.104 49.5312 926.592 49.8047C927.08 50.0781 927.48 50.4915 927.793 51.0449C928.249 50.4915 928.74 50.0781 929.268 49.8047C929.795 49.5312 930.358 49.3945 930.957 49.3945C931.719 49.3945 932.363 49.5508 932.891 49.8633C933.418 50.1693 933.812 50.6217 934.072 51.2207C934.261 51.6634 934.355 52.3796 934.355 53.3691V60H931.611V54.0723C931.611 53.0436 931.517 52.3796 931.328 52.0801C931.074 51.6895 930.684 51.4941 930.156 51.4941C929.772 51.4941 929.411 51.6113 929.072 51.8457C928.734 52.0801 928.49 52.4251 928.34 52.8809C928.19 53.3301 928.115 54.043 928.115 55.0195V60H925.371V54.3164C925.371 53.3073 925.322 52.6562 925.225 52.3633C925.127 52.0703 924.974 51.8522 924.766 51.709C924.564 51.5658 924.287 51.4941 923.936 51.4941C923.512 51.4941 923.132 51.6081 922.793 51.8359C922.454 52.0638 922.21 52.3926 922.061 52.8223C921.917 53.252 921.846 53.9648 921.846 54.9609V60H919.102V49.6289ZM943.105 56.6992L945.84 57.1582C945.488 58.1608 944.932 58.9258 944.17 59.4531C943.415 59.974 942.467 60.2344 941.328 60.2344C939.525 60.2344 938.19 59.6452 937.324 58.4668C936.641 57.5228 936.299 56.3314 936.299 54.8926C936.299 53.1738 936.748 51.8294 937.646 50.8594C938.545 49.8828 939.681 49.3945 941.055 49.3945C942.598 49.3945 943.815 49.9056 944.707 50.9277C945.599 51.9434 946.025 53.5026 945.986 55.6055H939.111C939.131 56.4193 939.352 57.054 939.775 57.5098C940.199 57.959 940.726 58.1836 941.357 58.1836C941.787 58.1836 942.148 58.0664 942.441 57.832C942.734 57.5977 942.956 57.2201 943.105 56.6992ZM943.262 53.9258C943.242 53.1315 943.037 52.5293 942.646 52.1191C942.256 51.7025 941.781 51.4941 941.221 51.4941C940.622 51.4941 940.127 51.7122 939.736 52.1484C939.346 52.5846 939.154 53.1771 939.16 53.9258H943.262ZM957.666 60H954.922V54.707C954.922 53.5872 954.863 52.8646 954.746 52.5391C954.629 52.207 954.437 51.9499 954.17 51.7676C953.91 51.5853 953.594 51.4941 953.223 51.4941C952.747 51.4941 952.321 51.6243 951.943 51.8848C951.566 52.1452 951.305 52.4902 951.162 52.9199C951.025 53.3496 950.957 54.1439 950.957 55.3027V60H948.213V49.6289H950.762V51.1523C951.667 49.9805 952.806 49.3945 954.18 49.3945C954.785 49.3945 955.339 49.5052 955.84 49.7266C956.341 49.9414 956.719 50.2181 956.973 50.5566C957.233 50.8952 957.412 51.2793 957.51 51.709C957.614 52.1387 957.666 52.7539 957.666 53.5547V60ZM965.215 49.6289V51.8164H963.34V55.9961C963.34 56.8424 963.356 57.3372 963.389 57.4805C963.428 57.6172 963.509 57.7311 963.633 57.8223C963.763 57.9134 963.919 57.959 964.102 57.959C964.355 57.959 964.723 57.8711 965.205 57.6953L965.439 59.8242C964.801 60.0977 964.079 60.2344 963.271 60.2344C962.777 60.2344 962.331 60.153 961.934 59.9902C961.536 59.821 961.243 59.6061 961.055 59.3457C960.872 59.0788 960.745 58.7207 960.674 58.2715C960.615 57.9525 960.586 57.3079 960.586 56.3379V51.8164H959.326V49.6289H960.586V47.5684L963.34 45.9668V49.6289H965.215Z" fill="#9BA5E5"/>
<rect x="738" y="2" width="374" height="234" rx="26" stroke="#B1B9EE" stroke-width="4"/>
<line x1="840" y1="87.5" x2="1004" y2="87.5" stroke="#9BA5E5" stroke-width="3"/>
<line x1="840" y1="109.5" x2="992" y2="109.5" stroke="#9BA5E5" stroke-width="3"/>
<line x1="840" y1="131.5" x2="1005" y2="131.5" stroke="#9BA5E5" stroke-width="3"/>
<line x1="840" y1="197.5" x2="1005" y2="197.5" stroke="#9BA5E5" stroke-width="3"/>
<line x1="841" y1="153.5" x2="1017" y2="153.5" stroke="#9BA5E5" stroke-width="3"/>
<line x1="841" y1="175.5" x2="954" y2="175.5" stroke="#9BA5E5" stroke-width="3"/>
<circle cx="769.5" cy="37.5" r="13.5" stroke="#B1B9EE" stroke-width="2"/>
<circle cx="1083.5" cy="37.5" r="13.5" stroke="#B1B9EE" stroke-width="2"/>
<circle cx="769.5" cy="74.5" r="13.5" stroke="#B1B9EE" stroke-width="2"/>
<circle cx="1083.5" cy="74.5" r="13.5" stroke="#B1B9EE" stroke-width="2"/>
<path d="M784 36H783V38H784V37V36ZM814.707 37.7071C815.098 37.3166 815.098 36.6834 814.707 36.2929L808.343 29.9289C807.953 29.5384 807.319 29.5384 806.929 29.9289C806.538 30.3195 806.538 30.9526 806.929 31.3431L812.586 37L806.929 42.6569C806.538 43.0474 806.538 43.6805 806.929 44.0711C807.319 44.4616 807.953 44.4616 808.343 44.0711L814.707 37.7071ZM784 37V38H814V37V36H784V37Z" fill="#B1B9EE"/>
<path d="M1038 36H1037V38H1038V37V36ZM1068.71 37.7071C1069.1 37.3166 1069.1 36.6834 1068.71 36.2929L1062.34 29.9289C1061.95 29.5384 1061.32 29.5384 1060.93 29.9289C1060.54 30.3195 1060.54 30.9526 1060.93 31.3431L1066.59 37L1060.93 42.6569C1060.54 43.0474 1060.54 43.6805 1060.93 44.0711C1061.32 44.4616 1061.95 44.4616 1062.34 44.0711L1068.71 37.7071ZM1038 37V38H1068V37V36H1038V37Z" fill="#B1B9EE"/>
<path d="M784 74H783V76H784V75V74ZM814.707 75.7071C815.098 75.3166 815.098 74.6834 814.707 74.2929L808.343 67.9289C807.953 67.5384 807.319 67.5384 806.929 67.9289C806.538 68.3195 806.538 68.9526 806.929 69.3431L812.586 75L806.929 80.6569C806.538 81.0474 806.538 81.6805 806.929 82.0711C807.319 82.4616 807.953 82.4616 808.343 82.0711L814.707 75.7071ZM784 75V76H814V75V74H784V75Z" fill="#B1B9EE"/>
<path d="M1038 74H1037V76H1038V75V74ZM1068.71 75.7071C1069.1 75.3166 1069.1 74.6834 1068.71 74.2929L1062.34 67.9289C1061.95 67.5384 1061.32 67.5384 1060.93 67.9289C1060.54 68.3195 1060.54 68.9526 1060.93 69.3431L1066.59 75L1060.93 80.6569C1060.54 81.0474 1060.54 81.6805 1060.93 82.0711C1061.32 82.4616 1061.95 82.4616 1062.34 82.0711L1068.71 75.7071ZM1039.88 76H1040.88V74H1039.88V75V76ZM1043.62 74H1042.62V76H1043.62V75V74ZM1047.38 76H1048.38V74H1047.38V75V76ZM1051.12 74H1050.12V76H1051.12V75V74ZM1054.88 76H1055.88V74H1054.88V75V76ZM1058.62 74H1057.62V76H1058.62V75V74ZM1062.38 76H1063.38V74H1062.38V75V76ZM1066.12 74H1065.12V76H1066.12V75V74ZM1038 75V76H1039.88V75V74H1038V75ZM1043.62 75V76H1047.38V75V74H1043.62V75ZM1051.12 75V76H1054.88V75V74H1051.12V75ZM1058.62 75V76H1062.38V75V74H1058.62V75ZM1066.12 75V76H1068V75V74H1066.12V75Z" fill="#B1B9EE"/>
</svg>
